<?xml version="1.0" encoding="UTF-8" standalone="no"?>
<!DOCTYPE svg PUBLIC "-//W3C//DTD SVG 1.1//EN"
 "http://www.w3.org/Graphics/SVG/1.1/DTD/svg11.dtd">
<!-- Generated by graphviz version 2.36.0 (20140111.2315)
 -->
<!-- Title: attribute Pages: 1 -->
<svg width="2761pt" height="784pt"
 viewBox="0.00 0.00 2761.00 784.00" xmlns="http://www.w3.org/2000/svg" xmlns:xlink="http://www.w3.org/1999/xlink">
<g id="graph0" class="graph" transform="scale(1 1) rotate(0) translate(4 780)">
<title>attribute</title>
<polygon fill="white" stroke="none" points="-4,4 -4,-780 2757,-780 2757,4 -4,4"/>
<!-- S34 -->
<g id="node1" class="node"><title>S34</title>
<polygon fill="none" stroke="#984ea3" points="2307,-772 2091,-772 2091,-734 2307,-734 2307,-772"/>
<polygon fill="none" stroke="#984ea3" points="2311,-776 2087,-776 2087,-730 2311,-730 2311,-776"/>
<text text-anchor="middle" x="2199" y="-756.8" font-family="Symbol,fantasy" font-size="14.00" fill="#984ea3">S34 Before attribute name</text>
<text text-anchor="middle" x="2199" y="-741.8" font-family="Symbol,fantasy" font-size="14.00" fill="#984ea3">&lt;foo_</text>
</g>
<!-- S34&#45;&gt;S34 -->
<g id="edge1" class="edge"><title>S34&#45;&gt;S34</title>
<path fill="none" stroke="#33a02c" d="M2311.33,-760.277C2322.14,-758.801 2329,-756.375 2329,-753 2329,-750.838 2326.19,-749.065 2321.32,-747.682"/>
<polygon fill="#33a02c" stroke="#33a02c" points="2321.81,-744.212 2311.33,-745.723 2320.47,-751.082 2321.81,-744.212"/>
<text text-anchor="middle" x="2350.5" y="-749.3" font-family="Symbol,fantasy" font-size="14.00" fill="#33a02c">SPACE</text>
</g>
<!-- L11 -->
<g id="node2" class="node"><title>L11</title>
<polygon fill="none" stroke="#999999" points="737.123,-227 385.366,-227 294.877,-191 646.634,-191 737.123,-227"/>
<text text-anchor="middle" x="516" y="-205.3" font-family="Symbol,fantasy" font-size="14.00" fill="#999999">Switch state based on tag name</text>
</g>
<!-- S34&#45;&gt;L11 -->
<g id="edge5" class="edge"><title>S34&#45;&gt;L11</title>
<path fill="none" stroke="#fb9a99" d="M2086.89,-750.793C1750.04,-746.958 750.228,-733.99 425,-712 330.068,-705.581 0,-755.149 0,-660 0,-660 0,-660 0,-298 0,-241.501 61.3367,-260.284 116,-246 187.531,-227.309 268.431,-217.925 338.666,-213.345"/>
<polygon fill="#fb9a99" stroke="#fb9a99" points="339.186,-216.82 348.949,-212.704 338.75,-209.833 339.186,-216.82"/>
<text text-anchor="middle" x="31" y="-475.3" font-family="Symbol,fantasy" font-size="14.00" fill="#fb9a99">GREATER</text>
</g>
<!-- L12 -->
<g id="node3" class="node"><title>L12</title>
<polygon fill="none" stroke="#999999" points="897.54,-497 308.094,-497 156.46,-461 745.906,-461 897.54,-497"/>
<text text-anchor="middle" x="527" y="-475.3" font-family="Symbol,fantasy" font-size="14.00" fill="#999999">Start a new attribute name and value in the current tag</text>
</g>
<!-- S34&#45;&gt;L12 -->
<g id="edge6" class="edge"><title>S34&#45;&gt;L12</title>
<path fill="none" stroke="#cab2d6" d="M2086.91,-747.581C1797.13,-735.22 1028.88,-696.234 786,-622 697.59,-594.978 605.256,-535.594 558.369,-502.828"/>
<polygon fill="#cab2d6" stroke="#cab2d6" points="560.344,-499.938 550.155,-497.034 556.309,-505.658 560.344,-499.938"/>
<text text-anchor="middle" x="801.5" y="-610.3" font-family="Symbol,fantasy" font-size="14.00" fill="#cab2d6">ELSE</text>
</g>
<!-- S01 -->
<g id="node6" class="node"><title>S01</title>
<ellipse fill="none" stroke="#4daf4a" cx="2121" cy="-76" rx="72" ry="72"/>
<ellipse fill="none" stroke="#4daf4a" cx="2121" cy="-76" rx="76" ry="76"/>
<text text-anchor="middle" x="2121" y="-72.3" font-family="Symbol,fantasy" font-size="14.00" fill="#4daf4a">S01 Data</text>
</g>
<!-- S34&#45;&gt;S01 -->
<g id="edge3" class="edge"><title>S34&#45;&gt;S01</title>
<path fill="none" stroke="#fb9a99" d="M2311.33,-749.28C2386.97,-745.214 2488.33,-735.399 2575,-712 2629.55,-697.273 2691,-716.499 2691,-660 2691,-660 2691,-660 2691,-208 2691,-109.947 2366.57,-85.2819 2207.24,-79.0807"/>
<polygon fill="#fb9a99" stroke="#fb9a99" points="2207.11,-75.5736 2196.99,-78.6983 2206.85,-82.5687 2207.11,-75.5736"/>
<text text-anchor="middle" x="2722" y="-430.3" font-family="Symbol,fantasy" font-size="14.00" fill="#fb9a99">GREATER</text>
</g>
<!-- S35 -->
<g id="node11" class="node"><title>S35</title>
<polygon fill="none" stroke="#984ea3" points="1711,-678 1567,-678 1567,-640 1711,-640 1711,-678"/>
<text text-anchor="middle" x="1639" y="-662.8" font-family="Symbol,fantasy" font-size="14.00" fill="#984ea3">S35 Attribute name</text>
<text text-anchor="middle" x="1639" y="-647.8" font-family="Symbol,fantasy" font-size="14.00" fill="#984ea3">&lt;foo bar</text>
</g>
<!-- S34&#45;&gt;S35 -->
<g id="edge4" class="edge"><title>S34&#45;&gt;S35</title>
<path fill="none" stroke="#cab2d6" d="M2086.69,-733.548C1978.6,-715.791 1817.74,-689.364 1721.13,-673.493"/>
<polygon fill="#cab2d6" stroke="#cab2d6" points="1721.56,-670.017 1711.12,-671.849 1720.42,-676.924 1721.56,-670.017"/>
<text text-anchor="middle" x="1967.5" y="-700.3" font-family="Symbol,fantasy" font-size="14.00" fill="#cab2d6">ELSE</text>
</g>
<!-- S43 -->
<g id="node18" class="node"><title>S43</title>
<polygon fill="none" stroke="#a65628" points="2572,-228 2388,-228 2388,-190 2572,-190 2572,-228"/>
<text text-anchor="middle" x="2480" y="-212.8" font-family="Symbol,fantasy" font-size="14.00" fill="#a65628">S43 Self&#45;closing start tag</text>
<text text-anchor="middle" x="2480" y="-197.8" font-family="Symbol,fantasy" font-size="14.00" fill="#a65628">&lt;foo/</text>
</g>
<!-- S34&#45;&gt;S43 -->
<g id="edge2" class="edge"><title>S34&#45;&gt;S43</title>
<path fill="none" stroke="#1f78b4" d="M2311.02,-748.319C2431.19,-741.236 2605,-720.529 2605,-660 2605,-660 2605,-660 2605,-298 2605,-266.987 2578.96,-245.951 2550.64,-232.246"/>
<polygon fill="#1f78b4" stroke="#1f78b4" points="2551.95,-228.997 2541.4,-228.05 2549.06,-235.371 2551.95,-228.997"/>
<text text-anchor="middle" x="2634" y="-475.3" font-family="Symbol,fantasy" font-size="14.00" fill="#1f78b4">SOLIDUS</text>
</g>
<!-- L11&#45;&gt;S01 -->
<g id="edge46" class="edge"><title>L11&#45;&gt;S01</title>
<path fill="none" stroke="#fdbf6f" d="M608.648,-190.989C651.79,-183.591 703.884,-175.397 751,-170 1234.78,-114.586 1818.72,-88.3946 2035.01,-80.0706"/>
<polygon fill="#fdbf6f" stroke="#fdbf6f" points="2035.17,-83.5671 2045.03,-79.6877 2034.91,-76.5722 2035.17,-83.5671"/>
</g>
<!-- S03 -->
<g id="node7" class="node"><title>S03</title>
<ellipse fill="none" stroke="#377eb8" cx="524" cy="-76" rx="72" ry="72"/>
<ellipse fill="none" stroke="#377eb8" cx="524" cy="-76" rx="76" ry="76"/>
<text text-anchor="middle" x="524" y="-72.3" font-family="Symbol,fantasy" font-size="14.00" fill="#377eb8">S03 RCDATA</text>
</g>
<!-- L11&#45;&gt;S03 -->
<g id="edge47" class="edge"><title>L11&#45;&gt;S03</title>
<path fill="none" stroke="#fdbf6f" d="M517.046,-190.874C517.529,-182.962 518.142,-172.923 518.803,-162.097"/>
<polygon fill="#fdbf6f" stroke="#fdbf6f" points="522.305,-162.167 519.422,-151.972 515.318,-161.74 522.305,-162.167"/>
</g>
<!-- S05 -->
<g id="node8" class="node"><title>S05</title>
<ellipse fill="none" stroke="#377eb8" cx="694" cy="-76" rx="72" ry="72"/>
<ellipse fill="none" stroke="#377eb8" cx="694" cy="-76" rx="76" ry="76"/>
<text text-anchor="middle" x="694" y="-72.3" font-family="Symbol,fantasy" font-size="14.00" fill="#377eb8">S05 RAWTEXT</text>
</g>
<!-- L11&#45;&gt;S05 -->
<g id="edge48" class="edge"><title>L11&#45;&gt;S05</title>
<path fill="none" stroke="#fdbf6f" d="M547.477,-190.94C565.929,-180.48 589.39,-166.373 609,-152 616.227,-146.703 623.573,-140.918 630.765,-134.985"/>
<polygon fill="#fdbf6f" stroke="#fdbf6f" points="633.08,-137.612 638.497,-128.506 628.584,-132.246 633.08,-137.612"/>
</g>
<!-- S06 -->
<g id="node9" class="node"><title>S06</title>
<ellipse fill="none" stroke="#e41a1c" cx="184" cy="-76" rx="72" ry="72"/>
<ellipse fill="none" stroke="#e41a1c" cx="184" cy="-76" rx="76" ry="76"/>
<text text-anchor="middle" x="184" y="-72.3" font-family="Symbol,fantasy" font-size="14.00" fill="#e41a1c">S06 Script data</text>
</g>
<!-- L11&#45;&gt;S06 -->
<g id="edge49" class="edge"><title>L11&#45;&gt;S06</title>
<path fill="none" stroke="#fdbf6f" d="M385.154,-190.982C346.355,-182.64 304.718,-170.277 269,-152 260.894,-147.852 252.942,-142.754 245.353,-137.185"/>
<polygon fill="#fdbf6f" stroke="#fdbf6f" points="247.333,-134.293 237.27,-130.979 243.07,-139.845 247.333,-134.293"/>
</g>
<!-- S07 -->
<g id="node10" class="node"><title>S07</title>
<ellipse fill="none" stroke="#377eb8" cx="354" cy="-76" rx="72" ry="72"/>
<ellipse fill="none" stroke="#377eb8" cx="354" cy="-76" rx="76" ry="76"/>
<text text-anchor="middle" x="354" y="-72.3" font-family="Symbol,fantasy" font-size="14.00" fill="#377eb8">S07 PLAINTEXT</text>
</g>
<!-- L11&#45;&gt;S07 -->
<g id="edge50" class="edge"><title>L11&#45;&gt;S07</title>
<path fill="none" stroke="#fdbf6f" d="M491.285,-190.92C475.962,-180.112 456.022,-165.65 439,-152 432.009,-146.394 424.817,-140.41 417.715,-134.36"/>
<polygon fill="#fdbf6f" stroke="#fdbf6f" points="419.924,-131.644 410.058,-127.783 415.363,-136.954 419.924,-131.644"/>
</g>
<!-- L13 -->
<g id="node4" class="node"><title>L13</title>
<polygon fill="none" stroke="#999999" points="2291.17,-587 1339.62,-587 1094.83,-551 2046.38,-551 2291.17,-587"/>
<text text-anchor="middle" x="1693" y="-565.3" font-family="Symbol,fantasy" font-size="14.00" fill="#999999">Append the lowercase version of the current input character to the current attribute name</text>
</g>
<!-- L14 -->
<g id="node5" class="node"><title>L14</title>
<polygon fill="none" stroke="#999999" points="2092.31,-317 1143.71,-317 899.69,-281 1848.29,-281 2092.31,-317"/>
<text text-anchor="middle" x="1496" y="-295.3" font-family="Symbol,fantasy" font-size="14.00" fill="#999999">Append the lowercase version of the current input character to the current attribute value</text>
</g>
<!-- S35&#45;&gt;L11 -->
<g id="edge12" class="edge"><title>S35&#45;&gt;L11</title>
<path fill="none" stroke="#fb9a99" d="M1566.7,-656.662C1382.44,-653.003 898.554,-641.761 739,-622 472.217,-588.958 380.166,-631.785 147,-498 114.249,-479.208 90,-472.759 90,-435 90,-435 90,-435 90,-298 90,-243.698 224.431,-222.635 342.259,-214.602"/>
<polygon fill="#fb9a99" stroke="#fb9a99" points="342.765,-218.077 352.516,-213.933 342.309,-211.092 342.765,-218.077"/>
<text text-anchor="middle" x="122" y="-430.3" font-family="Symbol,fantasy" font-size="14.00" fill="#fb9a99">GREATER</text>
</g>
<!-- S35&#45;&gt;L13 -->
<g id="edge13" class="edge"><title>S35&#45;&gt;L13</title>
<path fill="none" stroke="#b2df8a" d="M1657.18,-639.875C1662.06,-634.419 1667.07,-628.221 1671,-622 1675.97,-614.137 1680.27,-604.961 1683.73,-596.524"/>
<polygon fill="#b2df8a" stroke="#b2df8a" points="1687.04,-597.671 1687.38,-587.082 1680.51,-595.146 1687.04,-597.671"/>
<text text-anchor="middle" x="1704" y="-610.3" font-family="Symbol,fantasy" font-size="14.00" fill="#b2df8a">LETTER</text>
</g>
<!-- S35&#45;&gt;L13 -->
<g id="edge14" class="edge"><title>S35&#45;&gt;L13</title>
<path fill="none" stroke="#cab2d6" d="M1633.31,-639.603C1631.16,-629.137 1630.41,-616.137 1636,-606 1638.58,-601.315 1642.06,-597.156 1646.03,-593.483"/>
<polygon fill="#cab2d6" stroke="#cab2d6" points="1648.52,-595.976 1654.16,-587.012 1644.16,-590.498 1648.52,-595.976"/>
<text text-anchor="middle" x="1651.5" y="-610.3" font-family="Symbol,fantasy" font-size="14.00" fill="#cab2d6">ELSE</text>
</g>
<!-- S35&#45;&gt;S01 -->
<g id="edge10" class="edge"><title>S35&#45;&gt;S01</title>
<path fill="none" stroke="#fb9a99" d="M1711.14,-655.698C1874.41,-649.745 2261.14,-631.189 2300,-588 2333.6,-550.653 2411.61,-560.323 2280,-370 2276.38,-364.768 2181.93,-323.002 2178,-318 2168.07,-305.363 2150.3,-225.293 2137.23,-160.861"/>
<polygon fill="#fb9a99" stroke="#fb9a99" points="2140.59,-159.778 2135.18,-150.667 2133.72,-161.162 2140.59,-159.778"/>
<text text-anchor="middle" x="2335" y="-385.3" font-family="Symbol,fantasy" font-size="14.00" fill="#fb9a99">GREATER</text>
</g>
<!-- S35&#45;&gt;S35 -->
<g id="edge11" class="edge"><title>S35&#45;&gt;S35</title>
<path fill="none" stroke="#cab2d6" d="M1711.03,-666.484C1721.75,-665.319 1729,-662.824 1729,-659 1729,-656.55 1726.02,-654.646 1721.07,-653.287"/>
<polygon fill="#cab2d6" stroke="#cab2d6" points="1721.48,-649.807 1711.03,-651.516 1720.27,-656.7 1721.48,-649.807"/>
<text text-anchor="middle" x="1744.5" y="-655.3" font-family="Symbol,fantasy" font-size="14.00" fill="#cab2d6">ELSE</text>
</g>
<!-- S36 -->
<g id="node12" class="node"><title>S36</title>
<polygon fill="none" stroke="#984ea3" points="1016,-588 836,-588 836,-550 1016,-550 1016,-588"/>
<text text-anchor="middle" x="926" y="-572.8" font-family="Symbol,fantasy" font-size="14.00" fill="#984ea3">S36 After attribute name</text>
<text text-anchor="middle" x="926" y="-557.8" font-family="Symbol,fantasy" font-size="14.00" fill="#984ea3">&lt;foo bar_</text>
</g>
<!-- S35&#45;&gt;S36 -->
<g id="edge7" class="edge"><title>S35&#45;&gt;S36</title>
<path fill="none" stroke="#33a02c" d="M1566.82,-653.633C1483.87,-648.176 1343.76,-637.614 1224,-622 1157.79,-613.367 1083.84,-600.483 1026.17,-589.699"/>
<polygon fill="#33a02c" stroke="#33a02c" points="1026.8,-586.257 1016.33,-587.85 1025.51,-593.137 1026.8,-586.257"/>
<text text-anchor="middle" x="1245.5" y="-610.3" font-family="Symbol,fantasy" font-size="14.00" fill="#33a02c">SPACE</text>
</g>
<!-- S37 -->
<g id="node13" class="node"><title>S37</title>
<polygon fill="none" stroke="#984ea3" points="1142,-498 954,-498 954,-460 1142,-460 1142,-498"/>
<text text-anchor="middle" x="1048" y="-482.8" font-family="Symbol,fantasy" font-size="14.00" fill="#984ea3">S37 Before attribute value</text>
<text text-anchor="middle" x="1048" y="-467.8" font-family="Symbol,fantasy" font-size="14.00" fill="#984ea3">&lt;foo bar=</text>
</g>
<!-- S35&#45;&gt;S37 -->
<g id="edge9" class="edge"><title>S35&#45;&gt;S37</title>
<path fill="none" stroke="#fdbf6f" d="M1566.74,-657.629C1369.54,-655.865 833.281,-645.753 781,-588 769.666,-575.479 770.683,-563.371 781,-550 801.292,-523.702 877.907,-505.358 943.893,-494.066"/>
<polygon fill="#fdbf6f" stroke="#fdbf6f" points="944.676,-497.484 953.962,-492.383 943.521,-490.58 944.676,-497.484"/>
<text text-anchor="middle" x="804" y="-565.3" font-family="Symbol,fantasy" font-size="14.00" fill="#fdbf6f">EQUAL</text>
</g>
<!-- S35&#45;&gt;S43 -->
<g id="edge8" class="edge"><title>S35&#45;&gt;S43</title>
<path fill="none" stroke="#1f78b4" d="M1711.02,-658.543C1878.37,-659.202 2283.06,-657.098 2333,-622 2364.94,-599.55 2385.74,-495.937 2401,-460 2427.85,-396.777 2438.43,-382.518 2462,-318 2470.92,-293.569 2474.93,-287.691 2479,-262 2480.19,-254.483 2480.7,-246.28 2480.86,-238.657"/>
<polygon fill="#1f78b4" stroke="#1f78b4" points="2484.36,-238.402 2480.87,-228.398 2477.36,-238.393 2484.36,-238.402"/>
<text text-anchor="middle" x="2444" y="-430.3" font-family="Symbol,fantasy" font-size="14.00" fill="#1f78b4">SOLIDUS</text>
</g>
<!-- S36&#45;&gt;L11 -->
<g id="edge20" class="edge"><title>S36&#45;&gt;L11</title>
<path fill="none" stroke="#fb9a99" d="M928.648,-549.922C931.087,-525.517 931.156,-482.503 906,-460 885.243,-441.432 683.463,-446.622 656,-442 598.378,-432.303 566.076,-453.163 529,-408 488.985,-359.258 499.551,-278.977 508.82,-237.188"/>
<polygon fill="#fb9a99" stroke="#fb9a99" points="512.288,-237.733 511.177,-227.196 505.475,-236.126 512.288,-237.733"/>
<text text-anchor="middle" x="560" y="-385.3" font-family="Symbol,fantasy" font-size="14.00" fill="#fb9a99">GREATER</text>
</g>
<!-- S36&#45;&gt;L12 -->
<g id="edge21" class="edge"><title>S36&#45;&gt;L12</title>
<path fill="none" stroke="#cab2d6" d="M844.294,-549.98C777.255,-535.194 682.568,-514.311 614.1,-499.21"/>
<polygon fill="#cab2d6" stroke="#cab2d6" points="614.714,-495.761 604.194,-497.025 613.206,-502.597 614.714,-495.761"/>
<text text-anchor="middle" x="778.5" y="-520.3" font-family="Symbol,fantasy" font-size="14.00" fill="#cab2d6">ELSE</text>
</g>
<!-- S36&#45;&gt;S01 -->
<g id="edge18" class="edge"><title>S36&#45;&gt;S01</title>
<path fill="none" stroke="#fb9a99" d="M1016.05,-557.159C1038.85,-554.609 1063.31,-552.043 1086,-550 1143.4,-544.833 2121,-537.631 2121,-480 2121,-480 2121,-480 2121,-208 2121,-193.309 2121,-177.692 2121,-162.551"/>
<polygon fill="#fb9a99" stroke="#fb9a99" points="2124.5,-162.162 2121,-152.162 2117.5,-162.162 2124.5,-162.162"/>
<text text-anchor="middle" x="2152" y="-340.3" font-family="Symbol,fantasy" font-size="14.00" fill="#fb9a99">GREATER</text>
</g>
<!-- S36&#45;&gt;S35 -->
<g id="edge19" class="edge"><title>S36&#45;&gt;S35</title>
<path fill="none" stroke="#cab2d6" d="M1016.1,-580.342C1038.9,-582.903 1063.35,-585.599 1086,-588 1166.39,-596.519 1186.73,-596.402 1267,-606 1366.92,-617.948 1481.56,-634.387 1556.85,-645.561"/>
<polygon fill="#cab2d6" stroke="#cab2d6" points="1556.35,-649.024 1566.75,-647.033 1557.38,-642.1 1556.35,-649.024"/>
<text text-anchor="middle" x="1404.5" y="-610.3" font-family="Symbol,fantasy" font-size="14.00" fill="#cab2d6">ELSE</text>
</g>
<!-- S36&#45;&gt;S36 -->
<g id="edge15" class="edge"><title>S36&#45;&gt;S36</title>
<path fill="none" stroke="#33a02c" d="M1016.2,-576.09C1026.97,-574.801 1034,-572.438 1034,-569 1034,-566.798 1031.11,-565.037 1026.21,-563.716"/>
<polygon fill="#33a02c" stroke="#33a02c" points="1026.66,-560.242 1016.2,-561.91 1025.42,-567.131 1026.66,-560.242"/>
<text text-anchor="middle" x="1055.5" y="-565.3" font-family="Symbol,fantasy" font-size="14.00" fill="#33a02c">SPACE</text>
</g>
<!-- S36&#45;&gt;S37 -->
<g id="edge17" class="edge"><title>S36&#45;&gt;S37</title>
<path fill="none" stroke="#fdbf6f" d="M950.983,-549.98C969.282,-536.78 994.319,-518.72 1014.38,-504.254"/>
<polygon fill="#fdbf6f" stroke="#fdbf6f" points="1016.57,-506.987 1022.63,-498.299 1012.47,-501.31 1016.57,-506.987"/>
<text text-anchor="middle" x="1021" y="-520.3" font-family="Symbol,fantasy" font-size="14.00" fill="#fdbf6f">EQUAL</text>
</g>
<!-- S36&#45;&gt;S43 -->
<g id="edge16" class="edge"><title>S36&#45;&gt;S43</title>
<path fill="none" stroke="#1f78b4" d="M1016.41,-556.315C1039.09,-553.8 1063.41,-551.461 1086,-550 1115.08,-548.119 2110.12,-547.172 2135,-532 2204.78,-489.453 2155.6,-417.639 2222,-370 2261.18,-341.89 2282.13,-363.33 2329,-352 2377.5,-340.276 2399.35,-351.859 2436,-318 2458.67,-297.057 2469.94,-262.761 2475.35,-238.44"/>
<polygon fill="#1f78b4" stroke="#1f78b4" points="2478.84,-238.869 2477.39,-228.374 2471.98,-237.482 2478.84,-238.869"/>
<text text-anchor="middle" x="2251" y="-385.3" font-family="Symbol,fantasy" font-size="14.00" fill="#1f78b4">SOLIDUS</text>
</g>
<!-- S37&#45;&gt;L11 -->
<g id="edge28" class="edge"><title>S37&#45;&gt;L11</title>
<path fill="none" stroke="#fb9a99" d="M953.82,-461.864C949.152,-461.202 944.526,-460.576 940,-460 849.709,-448.51 825.194,-460.135 736,-442 687.931,-432.227 669.176,-438.801 631,-408 573.837,-361.88 539.283,-279.193 524.479,-236.747"/>
<polygon fill="#fb9a99" stroke="#fb9a99" points="527.739,-235.462 521.219,-227.112 521.109,-237.706 527.739,-235.462"/>
<text text-anchor="middle" x="612" y="-340.3" font-family="Symbol,fantasy" font-size="14.00" fill="#fb9a99">GREATER</text>
</g>
<!-- S37&#45;&gt;L14 -->
<g id="edge29" class="edge"><title>S37&#45;&gt;L14</title>
<path fill="none" stroke="#cab2d6" d="M1063.23,-459.962C1084.84,-435.604 1126.83,-392.644 1172,-370 1221.28,-345.298 1279.04,-329.281 1332.04,-318.909"/>
<polygon fill="#cab2d6" stroke="#cab2d6" points="1332.71,-322.344 1341.88,-317.037 1331.4,-315.468 1332.71,-322.344"/>
<text text-anchor="middle" x="1187.5" y="-385.3" font-family="Symbol,fantasy" font-size="14.00" fill="#cab2d6">ELSE</text>
</g>
<!-- S37&#45;&gt;S01 -->
<g id="edge26" class="edge"><title>S37&#45;&gt;S01</title>
<path fill="none" stroke="#fb9a99" d="M1051.01,-459.702C1053.79,-436.222 1054.8,-395.488 1034,-370 1004.59,-333.956 980.091,-347.453 935,-336 911.63,-330.064 843.571,-336.41 828,-318 817.093,-305.105 817.023,-292.835 828,-280 984.765,-96.703 1770.68,-77.8101 2034.49,-76.7022"/>
<polygon fill="#fb9a99" stroke="#fb9a99" points="2034.8,-80.2013 2044.79,-76.667 2034.77,-73.2013 2034.8,-80.2013"/>
<text text-anchor="middle" x="859" y="-295.3" font-family="Symbol,fantasy" font-size="14.00" fill="#fb9a99">GREATER</text>
</g>
<!-- S37&#45;&gt;S37 -->
<g id="edge22" class="edge"><title>S37&#45;&gt;S37</title>
<path fill="none" stroke="#33a02c" d="M1142.37,-485.991C1153.07,-484.682 1160,-482.352 1160,-479 1160,-476.853 1157.16,-475.125 1152.3,-473.816"/>
<polygon fill="#33a02c" stroke="#33a02c" points="1152.84,-470.357 1142.37,-472.009 1151.58,-477.244 1152.84,-470.357"/>
<text text-anchor="middle" x="1181.5" y="-475.3" font-family="Symbol,fantasy" font-size="14.00" fill="#33a02c">SPACE</text>
</g>
<!-- S38 -->
<g id="node14" class="node"><title>S38</title>
<polygon fill="none" stroke="#984ea3" points="1470,-408 1212,-408 1212,-370 1470,-370 1470,-408"/>
<text text-anchor="middle" x="1341" y="-392.8" font-family="Symbol,fantasy" font-size="14.00" fill="#984ea3">S38 Attribute value (double&#45;quoted)</text>
<text text-anchor="middle" x="1341" y="-377.8" font-family="Symbol,fantasy" font-size="14.00" fill="#984ea3">&lt;foo bar=&quot;</text>
</g>
<!-- S37&#45;&gt;S38 -->
<g id="edge24" class="edge"><title>S37&#45;&gt;S38</title>
<path fill="none" stroke="#fdbf6f" d="M1108,-459.98C1155.32,-445.766 1221.41,-425.918 1271.12,-410.989"/>
<polygon fill="#fdbf6f" stroke="#fdbf6f" points="1272.26,-414.3 1280.83,-408.072 1270.24,-407.596 1272.26,-414.3"/>
<text text-anchor="middle" x="1263.5" y="-430.3" font-family="Symbol,fantasy" font-size="14.00" fill="#fdbf6f">QUOTATION</text>
</g>
<!-- S39 -->
<g id="node15" class="node"><title>S39</title>
<polygon fill="none" stroke="#984ea3" points="1789,-408 1537,-408 1537,-370 1789,-370 1789,-408"/>
<text text-anchor="middle" x="1663" y="-392.8" font-family="Symbol,fantasy" font-size="14.00" fill="#984ea3">S39 Attribute value (single&#45;quoted)</text>
<text text-anchor="middle" x="1663" y="-377.8" font-family="Symbol,fantasy" font-size="14.00" fill="#984ea3">&lt;foo bar=&#39;</text>
</g>
<!-- S37&#45;&gt;S39 -->
<g id="edge25" class="edge"><title>S37&#45;&gt;S39</title>
<path fill="none" stroke="#fdbf6f" d="M1142.01,-465.307C1191.93,-458.51 1254.32,-449.927 1310,-442 1383.65,-431.516 1465.87,-419.426 1532.43,-409.543"/>
<polygon fill="#fdbf6f" stroke="#fdbf6f" points="1533.17,-412.971 1542.55,-408.039 1532.14,-406.047 1533.17,-412.971"/>
<text text-anchor="middle" x="1461.5" y="-430.3" font-family="Symbol,fantasy" font-size="14.00" fill="#fdbf6f">APOSTROPHE</text>
</g>
<!-- S40 -->
<g id="node16" class="node"><title>S40</title>
<polygon fill="none" stroke="#984ea3" points="861.25,-408 640.75,-408 640.75,-370 861.25,-370 861.25,-408"/>
<text text-anchor="middle" x="751" y="-392.8" font-family="Symbol,fantasy" font-size="14.00" fill="#984ea3">S40 Attribute value (unquoted)</text>
<text text-anchor="middle" x="751" y="-377.8" font-family="Symbol,fantasy" font-size="14.00" fill="#984ea3">&lt;foo bar=quz</text>
</g>
<!-- S37&#45;&gt;S40 -->
<g id="edge23" class="edge"><title>S37&#45;&gt;S40</title>
<path fill="none" stroke="#fdbf6f" d="M953.79,-462.081C949.13,-461.362 944.513,-460.664 940,-460 877.497,-450.805 855.147,-470.958 799,-442 787.228,-435.928 776.858,-425.748 768.797,-415.996"/>
<polygon fill="#fdbf6f" stroke="#fdbf6f" points="771.488,-413.755 762.589,-408.006 765.96,-418.05 771.488,-413.755"/>
<text text-anchor="middle" x="887" y="-430.3" font-family="Symbol,fantasy" font-size="14.00" fill="#fdbf6f">AMPERSAND_RECONSUME</text>
</g>
<!-- S37&#45;&gt;S40 -->
<g id="edge27" class="edge"><title>S37&#45;&gt;S40</title>
<path fill="none" stroke="#cab2d6" d="M953.817,-461.886C949.15,-461.219 944.524,-460.585 940,-460 918.421,-457.21 759.662,-458.077 745,-442 739.102,-435.533 738.492,-426.572 740.024,-417.908"/>
<polygon fill="#cab2d6" stroke="#cab2d6" points="743.46,-418.604 742.62,-408.043 736.691,-416.823 743.46,-418.604"/>
<text text-anchor="middle" x="760.5" y="-430.3" font-family="Symbol,fantasy" font-size="14.00" fill="#cab2d6">ELSE</text>
</g>
<!-- S38&#45;&gt;L14 -->
<g id="edge32" class="edge"><title>S38&#45;&gt;L14</title>
<path fill="none" stroke="#cab2d6" d="M1358.95,-369.819C1370.48,-358.911 1386.21,-345.378 1402,-336 1411.43,-330.399 1421.89,-325.379 1432.31,-320.994"/>
<polygon fill="#cab2d6" stroke="#cab2d6" points="1433.87,-324.138 1441.83,-317.146 1431.25,-317.648 1433.87,-324.138"/>
<text text-anchor="middle" x="1417.5" y="-340.3" font-family="Symbol,fantasy" font-size="14.00" fill="#cab2d6">ELSE</text>
</g>
<!-- S38&#45;&gt;S38 -->
<g id="edge31" class="edge"><title>S38&#45;&gt;S38</title>
<path fill="none" stroke="#cab2d6" d="M1470.01,-395.437C1481.09,-394.068 1488,-391.922 1488,-389 1488,-387.128 1485.16,-385.575 1480.21,-384.34"/>
<polygon fill="#cab2d6" stroke="#cab2d6" points="1480.46,-380.831 1470.01,-382.563 1479.26,-387.728 1480.46,-380.831"/>
<text text-anchor="middle" x="1503.5" y="-385.3" font-family="Symbol,fantasy" font-size="14.00" fill="#cab2d6">ELSE</text>
</g>
<!-- S42 -->
<g id="node17" class="node"><title>S42</title>
<polygon fill="none" stroke="#984ea3" points="2427,-318 2187,-318 2187,-280 2427,-280 2427,-318"/>
<text text-anchor="middle" x="2307" y="-302.8" font-family="Symbol,fantasy" font-size="14.00" fill="#984ea3">S42 After attribute value (quoted)</text>
<text text-anchor="middle" x="2307" y="-287.8" font-family="Symbol,fantasy" font-size="14.00" fill="#984ea3">&lt;foo bar=&#39;quz&#39;</text>
</g>
<!-- S38&#45;&gt;S42 -->
<g id="edge30" class="edge"><title>S38&#45;&gt;S42</title>
<path fill="none" stroke="#fdbf6f" d="M1387.31,-369.926C1425.57,-355.007 1473.82,-336.238 1475,-336 1611.41,-308.425 1962.07,-326.061 2101,-318 2125.6,-316.573 2151.82,-314.617 2177.02,-312.518"/>
<polygon fill="#fdbf6f" stroke="#fdbf6f" points="2177.32,-316.005 2186.99,-311.676 2176.73,-309.03 2177.32,-316.005"/>
<text text-anchor="middle" x="1517.5" y="-340.3" font-family="Symbol,fantasy" font-size="14.00" fill="#fdbf6f">QUOTATION</text>
</g>
<!-- S39&#45;&gt;L14 -->
<g id="edge35" class="edge"><title>S39&#45;&gt;L14</title>
<path fill="none" stroke="#cab2d6" d="M1628.8,-369.98C1602.4,-356.065 1565.74,-336.75 1537.63,-321.936"/>
<polygon fill="#cab2d6" stroke="#cab2d6" points="1538.93,-318.665 1528.45,-317.099 1535.67,-324.858 1538.93,-318.665"/>
<text text-anchor="middle" x="1609.5" y="-340.3" font-family="Symbol,fantasy" font-size="14.00" fill="#cab2d6">ELSE</text>
</g>
<!-- S39&#45;&gt;S39 -->
<g id="edge34" class="edge"><title>S39&#45;&gt;S39</title>
<path fill="none" stroke="#cab2d6" d="M1789.38,-395.437C1800.23,-394.068 1807,-391.922 1807,-389 1807,-387.128 1804.22,-385.575 1799.37,-384.34"/>
<polygon fill="#cab2d6" stroke="#cab2d6" points="1799.84,-380.868 1789.38,-382.563 1798.61,-387.76 1799.84,-380.868"/>
<text text-anchor="middle" x="1822.5" y="-385.3" font-family="Symbol,fantasy" font-size="14.00" fill="#cab2d6">ELSE</text>
</g>
<!-- S39&#45;&gt;S42 -->
<g id="edge33" class="edge"><title>S39&#45;&gt;S42</title>
<path fill="none" stroke="#fdbf6f" d="M1789.23,-384.245C1919.73,-379.484 2114.35,-369.683 2187,-352 2213.74,-345.493 2242.05,-333.493 2264.46,-322.66"/>
<polygon fill="#fdbf6f" stroke="#fdbf6f" points="2266.26,-325.673 2273.68,-318.108 2263.16,-319.397 2266.26,-325.673"/>
<text text-anchor="middle" x="2279.5" y="-340.3" font-family="Symbol,fantasy" font-size="14.00" fill="#fdbf6f">APOSTROPHE</text>
</g>
<!-- S40&#45;&gt;S34 -->
<g id="edge36" class="edge"><title>S40&#45;&gt;S34</title>
<path fill="none" stroke="#33a02c" d="M640.634,-402.743C466.437,-422.863 147.294,-459.754 147,-460 124.568,-478.765 128,-493.754 128,-523 128,-660 128,-660 128,-660 128,-709.072 1631.97,-741.319 2076.61,-749.78"/>
<polygon fill="#33a02c" stroke="#33a02c" points="2076.86,-753.285 2086.92,-749.976 2076.99,-746.287 2076.86,-753.285"/>
<text text-anchor="middle" x="149.5" y="-565.3" font-family="Symbol,fantasy" font-size="14.00" fill="#33a02c">SPACE</text>
</g>
<!-- S40&#45;&gt;L11 -->
<g id="edge39" class="edge"><title>S40&#45;&gt;L11</title>
<path fill="none" stroke="#fb9a99" d="M735.191,-369.999C705.069,-336.024 639.965,-264.219 612,-246 603.184,-240.257 593.322,-235.246 583.365,-230.937"/>
<polygon fill="#fb9a99" stroke="#fb9a99" points="584.402,-227.579 573.822,-227.018 581.743,-234.054 584.402,-227.579"/>
<text text-anchor="middle" x="719" y="-295.3" font-family="Symbol,fantasy" font-size="14.00" fill="#fb9a99">GREATER</text>
</g>
<!-- S40&#45;&gt;L14 -->
<g id="edge40" class="edge"><title>S40&#45;&gt;L14</title>
<path fill="none" stroke="#cab2d6" d="M806.518,-369.901C844.742,-358.22 896.926,-343.797 944,-336 998.633,-326.95 1056.66,-320.151 1113.78,-315.047"/>
<polygon fill="#cab2d6" stroke="#cab2d6" points="1114.4,-318.506 1124.06,-314.146 1113.79,-311.533 1114.4,-318.506"/>
<text text-anchor="middle" x="959.5" y="-340.3" font-family="Symbol,fantasy" font-size="14.00" fill="#cab2d6">ELSE</text>
</g>
<!-- S40&#45;&gt;S01 -->
<g id="edge37" class="edge"><title>S40&#45;&gt;S01</title>
<path fill="none" stroke="#fb9a99" d="M751.628,-369.931C752.986,-336.859 756.847,-267.968 766,-246 782.765,-205.761 789.317,-190.097 828,-170 934.6,-114.618 1762.75,-86.9263 2034.75,-79.2589"/>
<polygon fill="#fb9a99" stroke="#fb9a99" points="2035.07,-82.7515 2044.97,-78.9731 2034.87,-75.7543 2035.07,-82.7515"/>
<text text-anchor="middle" x="797" y="-250.3" font-family="Symbol,fantasy" font-size="14.00" fill="#fb9a99">GREATER</text>
</g>
<!-- S40&#45;&gt;S40 -->
<g id="edge38" class="edge"><title>S40&#45;&gt;S40</title>
<path fill="none" stroke="#cab2d6" d="M861.598,-395.671C872.25,-394.317 879,-392.094 879,-389 879,-387.018 876.23,-385.393 871.438,-384.125"/>
<polygon fill="#cab2d6" stroke="#cab2d6" points="872.064,-380.682 861.598,-382.329 870.807,-387.568 872.064,-380.682"/>
<text text-anchor="middle" x="894.5" y="-385.3" font-family="Symbol,fantasy" font-size="14.00" fill="#cab2d6">ELSE</text>
</g>
<!-- S42&#45;&gt;S34 -->
<g id="edge41" class="edge"><title>S42&#45;&gt;S34</title>
<path fill="none" stroke="#33a02c" d="M2335.72,-318.063C2370.18,-342.283 2422.59,-388.483 2416,-442 2413.48,-462.461 2382.37,-604.804 2371,-622 2341.37,-666.801 2290.92,-702.223 2252.29,-724.704"/>
<polygon fill="#33a02c" stroke="#33a02c" points="2250.2,-721.866 2243.25,-729.859 2253.67,-727.948 2250.2,-721.866"/>
<text text-anchor="middle" x="2421.5" y="-520.3" font-family="Symbol,fantasy" font-size="14.00" fill="#33a02c">SPACE</text>
</g>
<!-- S42&#45;&gt;S34 -->
<g id="edge44" class="edge"><title>S42&#45;&gt;S34</title>
<path fill="none" stroke="#cab2d6" d="M2401.59,-318.004C2436.63,-330.641 2468,-352.005 2468,-388 2468,-660 2468,-660 2468,-660 2468,-693.528 2392.24,-717.381 2321.13,-732.384"/>
<polygon fill="#cab2d6" stroke="#cab2d6" points="2320.22,-728.998 2311.13,-734.443 2321.63,-735.854 2320.22,-728.998"/>
<text text-anchor="middle" x="2529" y="-520.3" font-family="Symbol,fantasy" font-size="14.00" fill="#cab2d6">ELSE_RECONSUME</text>
</g>
<!-- S42&#45;&gt;L11 -->
<g id="edge45" class="edge"><title>S42&#45;&gt;L11</title>
<path fill="none" stroke="#fb9a99" d="M2186.97,-286.636C2158.79,-284.21 2128.85,-281.831 2101,-280 1605.2,-247.406 1021.14,-225.99 719.375,-216.182"/>
<polygon fill="#fb9a99" stroke="#fb9a99" points="719.311,-212.678 709.203,-215.853 719.084,-219.675 719.311,-212.678"/>
<text text-anchor="middle" x="1828" y="-250.3" font-family="Symbol,fantasy" font-size="14.00" fill="#fb9a99">GREATER</text>
</g>
<!-- S42&#45;&gt;S01 -->
<g id="edge43" class="edge"><title>S42&#45;&gt;S01</title>
<path fill="none" stroke="#fb9a99" d="M2291.78,-279.915C2266.79,-250.228 2215.89,-189.746 2176.13,-142.5"/>
<polygon fill="#fb9a99" stroke="#fb9a99" points="2178.71,-140.138 2169.6,-134.74 2173.36,-144.645 2178.71,-140.138"/>
<text text-anchor="middle" x="2278" y="-205.3" font-family="Symbol,fantasy" font-size="14.00" fill="#fb9a99">GREATER</text>
</g>
<!-- S42&#45;&gt;S43 -->
<g id="edge42" class="edge"><title>S42&#45;&gt;S43</title>
<path fill="none" stroke="#1f78b4" d="M2330.36,-279.801C2344.94,-269.02 2364.4,-255.629 2383,-246 2392.99,-240.826 2403.9,-236.029 2414.69,-231.733"/>
<polygon fill="#1f78b4" stroke="#1f78b4" points="2416.04,-234.963 2424.1,-228.091 2413.51,-228.435 2416.04,-234.963"/>
<text text-anchor="middle" x="2412" y="-250.3" font-family="Symbol,fantasy" font-size="14.00" fill="#1f78b4">SOLIDUS</text>
</g>
</g>
</svg>
