<?xml version="1.0" encoding="UTF-8" standalone="no"?>
<!DOCTYPE svg PUBLIC "-//W3C//DTD SVG 1.1//EN"
 "http://www.w3.org/Graphics/SVG/1.1/DTD/svg11.dtd">
<!-- Generated by graphviz version 2.36.0 (20140111.2315)
 -->
<!-- Title: comment Pages: 1 -->
<svg width="680pt" height="888pt"
 viewBox="0.00 0.00 680.00 888.00" xmlns="http://www.w3.org/2000/svg" xmlns:xlink="http://www.w3.org/1999/xlink">
<g id="graph0" class="graph" transform="scale(1 1) rotate(0) translate(4 884)">
<title>comment</title>
<polygon fill="white" stroke="none" points="-4,4 -4,-884 676,-884 676,4 -4,4"/>
<!-- S45 -->
<g id="node1" class="node"><title>S45</title>
<polygon fill="none" stroke="#ff7f00" points="220,-876 4,-876 4,-838 220,-838 220,-876"/>
<polygon fill="none" stroke="#ff7f00" points="224,-880 0,-880 0,-834 224,-834 224,-880"/>
<text text-anchor="middle" x="112" y="-860.8" font-family="Symbol,fantasy" font-size="14.00" fill="#ff7f00">S45 Markup declaration open</text>
<text text-anchor="middle" x="112" y="-845.8" font-family="Symbol,fantasy" font-size="14.00" fill="#ff7f00">&lt;!</text>
</g>
<!-- S44 -->
<g id="node3" class="node"><title>S44</title>
<polygon fill="none" stroke="#ff7f00" points="167.25,-692 16.75,-692 16.75,-654 167.25,-654 167.25,-692"/>
<text text-anchor="middle" x="92" y="-676.8" font-family="Symbol,fantasy" font-size="14.00" fill="#ff7f00">S44 Bogus comment</text>
<text text-anchor="middle" x="92" y="-661.8" font-family="Symbol,fantasy" font-size="14.00" fill="#ff7f00">&lt;? or &lt;/? or &lt;!??</text>
</g>
<!-- S45&#45;&gt;S44 -->
<g id="edge1" class="edge"><title>S45&#45;&gt;S44</title>
<path fill="none" stroke="#cab2d6" d="M83.3784,-833.98C68.5799,-820.73 51.9823,-802.484 44,-782 32.9017,-753.52 50.9735,-721.615 68.0247,-699.914"/>
<polygon fill="#cab2d6" stroke="#cab2d6" points="70.7856,-702.068 74.4469,-692.126 65.3847,-697.615 70.7856,-702.068"/>
<text text-anchor="middle" x="105" y="-759.3" font-family="Symbol,fantasy" font-size="14.00" fill="#cab2d6">ELSE_RECONSUME</text>
</g>
<!-- S53 -->
<g id="node10" class="node"><title>S53</title>
<polygon fill="none" stroke="#ff7f00" points="445,-782 175,-782 175,-744 445,-744 445,-782"/>
<text text-anchor="middle" x="310" y="-766.8" font-family="Symbol,fantasy" font-size="14.00" fill="#ff7f00">S53 Not In Spec Before comment start</text>
<text text-anchor="middle" x="310" y="-751.8" font-family="Symbol,fantasy" font-size="14.00" fill="#ff7f00">&lt;!&#45;</text>
</g>
<!-- S45&#45;&gt;S53 -->
<g id="edge2" class="edge"><title>S45&#45;&gt;S53</title>
<path fill="none" stroke="#fdbf6f" d="M159.426,-833.964C190.323,-819.607 230.519,-800.931 261.607,-786.486"/>
<polygon fill="#fdbf6f" stroke="#fdbf6f" points="263.349,-789.536 270.943,-782.148 260.399,-783.188 263.349,-789.536"/>
<text text-anchor="middle" x="256.5" y="-804.3" font-family="Symbol,fantasy" font-size="14.00" fill="#fdbf6f">HYPHEN</text>
</g>
<!-- S01 -->
<g id="node2" class="node"><title>S01</title>
<ellipse fill="none" stroke="#4daf4a" cx="396" cy="-76" rx="72" ry="72"/>
<ellipse fill="none" stroke="#4daf4a" cx="396" cy="-76" rx="76" ry="76"/>
<text text-anchor="middle" x="396" y="-72.3" font-family="Symbol,fantasy" font-size="14.00" fill="#4daf4a">S01 Data</text>
</g>
<!-- S44&#45;&gt;S01 -->
<g id="edge20" class="edge"><title>S44&#45;&gt;S01</title>
<path fill="none" stroke="#fb9a99" d="M92,-653.798C92,-636.002 92,-608.139 92,-584 92,-584 92,-584 92,-222 92,-124.777 220.235,-92.6783 310.132,-82.121"/>
<polygon fill="#fb9a99" stroke="#fb9a99" points="310.517,-85.5999 320.072,-81.0223 309.748,-78.6423 310.517,-85.5999"/>
<text text-anchor="middle" x="123" y="-399.3" font-family="Symbol,fantasy" font-size="14.00" fill="#fb9a99">GREATER</text>
</g>
<!-- S44&#45;&gt;S44 -->
<g id="edge21" class="edge"><title>S44&#45;&gt;S44</title>
<path fill="none" stroke="#cab2d6" d="M167.535,-680.362C178.003,-679.149 185,-676.695 185,-673 185,-670.69 182.267,-668.866 177.661,-667.526"/>
<polygon fill="#cab2d6" stroke="#cab2d6" points="178.007,-664.03 167.535,-665.638 176.724,-670.912 178.007,-664.03"/>
<text text-anchor="middle" x="200.5" y="-669.3" font-family="Symbol,fantasy" font-size="14.00" fill="#cab2d6">ELSE</text>
</g>
<!-- S46 -->
<g id="node4" class="node"><title>S46</title>
<polygon fill="none" stroke="#ff7f00" points="381.25,-692 238.75,-692 238.75,-654 381.25,-654 381.25,-692"/>
<text text-anchor="middle" x="310" y="-676.8" font-family="Symbol,fantasy" font-size="14.00" fill="#ff7f00">S46 Comment start</text>
<text text-anchor="middle" x="310" y="-661.8" font-family="Symbol,fantasy" font-size="14.00" fill="#ff7f00">&lt;!&#45;&#45;</text>
</g>
<!-- S46&#45;&gt;S01 -->
<g id="edge4" class="edge"><title>S46&#45;&gt;S01</title>
<path fill="none" stroke="#fb9a99" d="M381.476,-665.365C470.21,-655.109 610,-631.425 610,-584 610,-584 610,-584 610,-222 610,-156.078 539.542,-118.067 479.484,-97.6417"/>
<polygon fill="#fb9a99" stroke="#fb9a99" points="480.539,-94.3045 469.946,-94.5129 478.357,-100.956 480.539,-94.3045"/>
<text text-anchor="middle" x="641" y="-399.3" font-family="Symbol,fantasy" font-size="14.00" fill="#fb9a99">GREATER</text>
</g>
<!-- S47 -->
<g id="node5" class="node"><title>S47</title>
<polygon fill="none" stroke="#ff7f00" points="400,-602 220,-602 220,-564 400,-564 400,-602"/>
<text text-anchor="middle" x="310" y="-586.8" font-family="Symbol,fantasy" font-size="14.00" fill="#ff7f00">S47 Comment start dash</text>
<text text-anchor="middle" x="310" y="-571.8" font-family="Symbol,fantasy" font-size="14.00" fill="#ff7f00">&lt;!&#45;&#45; &#45;</text>
</g>
<!-- S46&#45;&gt;S47 -->
<g id="edge3" class="edge"><title>S46&#45;&gt;S47</title>
<path fill="none" stroke="#fdbf6f" d="M310,-653.766C310,-641.849 310,-626.038 310,-612.482"/>
<polygon fill="#fdbf6f" stroke="#fdbf6f" points="313.5,-612.21 310,-602.21 306.5,-612.21 313.5,-612.21"/>
<text text-anchor="middle" x="337.5" y="-624.3" font-family="Symbol,fantasy" font-size="14.00" fill="#fdbf6f">HYPHEN</text>
</g>
<!-- S48 -->
<g id="node6" class="node"><title>S48</title>
<polygon fill="none" stroke="#ff7f00" points="364,-512 256,-512 256,-474 364,-474 364,-512"/>
<text text-anchor="middle" x="310" y="-496.8" font-family="Symbol,fantasy" font-size="14.00" fill="#ff7f00">S48 Comment</text>
<text text-anchor="middle" x="310" y="-481.8" font-family="Symbol,fantasy" font-size="14.00" fill="#ff7f00">&lt;!&#45;&#45; foo</text>
</g>
<!-- S46&#45;&gt;S48 -->
<g id="edge5" class="edge"><title>S46&#45;&gt;S48</title>
<path fill="none" stroke="#cab2d6" d="M246.85,-653.868C221.445,-643.127 194.722,-626.647 180,-602 157.922,-565.037 203.863,-534.965 247.102,-516.029"/>
<polygon fill="#cab2d6" stroke="#cab2d6" points="248.696,-519.155 256.548,-512.042 245.974,-512.706 248.696,-519.155"/>
<text text-anchor="middle" x="195.5" y="-579.3" font-family="Symbol,fantasy" font-size="14.00" fill="#cab2d6">ELSE</text>
</g>
<!-- S47&#45;&gt;S01 -->
<g id="edge7" class="edge"><title>S47&#45;&gt;S01</title>
<path fill="none" stroke="#fb9a99" d="M398.456,-563.97C460.716,-548.65 533,-524.331 533,-494 533,-494 533,-494 533,-222 533,-180.176 502.512,-145.544 470.301,-120.626"/>
<polygon fill="#fb9a99" stroke="#fb9a99" points="472.2,-117.676 462.092,-114.501 468.014,-123.286 472.2,-117.676"/>
<text text-anchor="middle" x="564" y="-354.3" font-family="Symbol,fantasy" font-size="14.00" fill="#fb9a99">GREATER</text>
</g>
<!-- S47&#45;&gt;S48 -->
<g id="edge8" class="edge"><title>S47&#45;&gt;S48</title>
<path fill="none" stroke="#cab2d6" d="M310,-563.766C310,-551.849 310,-536.038 310,-522.482"/>
<polygon fill="#cab2d6" stroke="#cab2d6" points="313.5,-522.21 310,-512.21 306.5,-522.21 313.5,-522.21"/>
<text text-anchor="middle" x="325.5" y="-534.3" font-family="Symbol,fantasy" font-size="14.00" fill="#cab2d6">ELSE</text>
</g>
<!-- S50 -->
<g id="node8" class="node"><title>S50</title>
<polygon fill="none" stroke="#ff7f00" points="286.25,-332 149.75,-332 149.75,-294 286.25,-294 286.25,-332"/>
<text text-anchor="middle" x="218" y="-316.8" font-family="Symbol,fantasy" font-size="14.00" fill="#ff7f00">S50 Comment end</text>
<text text-anchor="middle" x="218" y="-301.8" font-family="Symbol,fantasy" font-size="14.00" fill="#ff7f00">&lt;!&#45;&#45; &#45;&#45;</text>
</g>
<!-- S47&#45;&gt;S50 -->
<g id="edge6" class="edge"><title>S47&#45;&gt;S50</title>
<path fill="none" stroke="#fdbf6f" d="M283.583,-563.833C254.549,-542.086 209.564,-502.693 191,-456 175.84,-417.87 191.062,-370.516 204.039,-341.279"/>
<polygon fill="#fdbf6f" stroke="#fdbf6f" points="207.265,-342.641 208.306,-332.097 200.917,-339.69 207.265,-342.641"/>
<text text-anchor="middle" x="218.5" y="-444.3" font-family="Symbol,fantasy" font-size="14.00" fill="#fdbf6f">HYPHEN</text>
</g>
<!-- S48&#45;&gt;S48 -->
<g id="edge10" class="edge"><title>S48&#45;&gt;S48</title>
<path fill="none" stroke="#cab2d6" d="M364.007,-500.883C374.529,-499.967 382,-497.34 382,-493 382,-490.22 378.934,-488.142 373.964,-486.767"/>
<polygon fill="#cab2d6" stroke="#cab2d6" points="374.445,-483.3 364.007,-485.117 373.3,-490.205 374.445,-483.3"/>
<text text-anchor="middle" x="397.5" y="-489.3" font-family="Symbol,fantasy" font-size="14.00" fill="#cab2d6">ELSE</text>
</g>
<!-- S49 -->
<g id="node7" class="node"><title>S49</title>
<polygon fill="none" stroke="#ff7f00" points="451,-422 277,-422 277,-384 451,-384 451,-422"/>
<text text-anchor="middle" x="364" y="-406.8" font-family="Symbol,fantasy" font-size="14.00" fill="#ff7f00">S49 Comment end dash</text>
<text text-anchor="middle" x="364" y="-391.8" font-family="Symbol,fantasy" font-size="14.00" fill="#ff7f00">&lt;!&#45;&#45; foo &#45;</text>
</g>
<!-- S48&#45;&gt;S49 -->
<g id="edge9" class="edge"><title>S48&#45;&gt;S49</title>
<path fill="none" stroke="#fdbf6f" d="M328.178,-473.875C333.06,-468.419 338.07,-462.221 342,-456 346.764,-448.459 350.921,-439.708 354.301,-431.561"/>
<polygon fill="#fdbf6f" stroke="#fdbf6f" points="357.64,-432.632 358.026,-422.044 351.122,-430.08 357.64,-432.632"/>
<text text-anchor="middle" x="378.5" y="-444.3" font-family="Symbol,fantasy" font-size="14.00" fill="#fdbf6f">HYPHEN</text>
</g>
<!-- S49&#45;&gt;S48 -->
<g id="edge12" class="edge"><title>S49&#45;&gt;S48</title>
<path fill="none" stroke="#cab2d6" d="M323.718,-422.034C317.009,-426.882 310.955,-432.825 307,-440 303.115,-447.048 302.294,-455.481 302.876,-463.483"/>
<polygon fill="#cab2d6" stroke="#cab2d6" points="299.441,-464.193 304.31,-473.603 306.372,-463.211 299.441,-464.193"/>
<text text-anchor="middle" x="322.5" y="-444.3" font-family="Symbol,fantasy" font-size="14.00" fill="#cab2d6">ELSE</text>
</g>
<!-- S49&#45;&gt;S50 -->
<g id="edge11" class="edge"><title>S49&#45;&gt;S50</title>
<path fill="none" stroke="#fdbf6f" d="M334.102,-383.98C311.738,-370.499 280.964,-351.951 256.718,-337.337"/>
<polygon fill="#fdbf6f" stroke="#fdbf6f" points="258.479,-334.312 248.108,-332.147 254.866,-340.307 258.479,-334.312"/>
<text text-anchor="middle" x="332.5" y="-354.3" font-family="Symbol,fantasy" font-size="14.00" fill="#fdbf6f">HYPHEN</text>
</g>
<!-- S50&#45;&gt;S01 -->
<g id="edge13" class="edge"><title>S50&#45;&gt;S01</title>
<path fill="none" stroke="#fb9a99" d="M217.398,-293.843C217.458,-271.234 220.292,-232.162 237,-204 257.267,-169.84 290.4,-141.189 321.189,-119.797"/>
<polygon fill="#fb9a99" stroke="#fb9a99" points="323.487,-122.467 329.798,-113.957 319.558,-116.674 323.487,-122.467"/>
<text text-anchor="middle" x="268" y="-219.3" font-family="Symbol,fantasy" font-size="14.00" fill="#fb9a99">GREATER</text>
</g>
<!-- S50&#45;&gt;S48 -->
<g id="edge16" class="edge"><title>S50&#45;&gt;S48</title>
<path fill="none" stroke="#cab2d6" d="M217.823,-332.314C218.343,-354.74 221.671,-393.28 237,-422 246.417,-439.645 261.907,-455.446 276.2,-467.551"/>
<polygon fill="#cab2d6" stroke="#cab2d6" points="274.008,-470.28 283.972,-473.884 278.43,-464.854 274.008,-470.28"/>
<text text-anchor="middle" x="252.5" y="-399.3" font-family="Symbol,fantasy" font-size="14.00" fill="#cab2d6">ELSE</text>
</g>
<!-- S50&#45;&gt;S50 -->
<g id="edge15" class="edge"><title>S50&#45;&gt;S50</title>
<path fill="none" stroke="#fdbf6f" d="M286.478,-320.523C296.914,-319.375 304,-316.867 304,-313 304,-310.583 301.232,-308.697 296.608,-307.342"/>
<polygon fill="#fdbf6f" stroke="#fdbf6f" points="296.947,-303.846 286.478,-305.477 295.679,-310.73 296.947,-303.846"/>
<text text-anchor="middle" x="331.5" y="-309.3" font-family="Symbol,fantasy" font-size="14.00" fill="#fdbf6f">HYPHEN</text>
</g>
<!-- S51 -->
<g id="node9" class="node"><title>S51</title>
<polygon fill="none" stroke="#ff7f00" points="484,-242 308,-242 308,-204 484,-204 484,-242"/>
<text text-anchor="middle" x="396" y="-226.8" font-family="Symbol,fantasy" font-size="14.00" fill="#ff7f00">S51 Comment end bang</text>
<text text-anchor="middle" x="396" y="-211.8" font-family="Symbol,fantasy" font-size="14.00" fill="#ff7f00">&lt;!&#45;&#45; &#45;&#45;!</text>
</g>
<!-- S50&#45;&gt;S51 -->
<g id="edge14" class="edge"><title>S50&#45;&gt;S51</title>
<path fill="none" stroke="#fdbf6f" d="M236.862,-293.806C249.173,-282.754 266.055,-269.072 283,-260 293.352,-254.457 304.7,-249.598 316.086,-245.391"/>
<polygon fill="#fdbf6f" stroke="#fdbf6f" points="317.379,-248.647 325.638,-242.011 315.044,-242.048 317.379,-248.647"/>
<text text-anchor="middle" x="332.5" y="-264.3" font-family="Symbol,fantasy" font-size="14.00" fill="#fdbf6f">EXCLAMATION</text>
</g>
<!-- S51&#45;&gt;S01 -->
<g id="edge18" class="edge"><title>S51&#45;&gt;S01</title>
<path fill="none" stroke="#fb9a99" d="M396,-203.929C396,-193.031 396,-178.265 396,-162.658"/>
<polygon fill="#fb9a99" stroke="#fb9a99" points="399.5,-162.313 396,-152.313 392.5,-162.313 399.5,-162.313"/>
<text text-anchor="middle" x="427" y="-174.3" font-family="Symbol,fantasy" font-size="14.00" fill="#fb9a99">GREATER</text>
</g>
<!-- S51&#45;&gt;S48 -->
<g id="edge19" class="edge"><title>S51&#45;&gt;S48</title>
<path fill="none" stroke="#cab2d6" d="M410.997,-242.039C438.85,-277.867 492.871,-359.897 460,-422 443.126,-453.88 406.74,-471.326 374.032,-480.828"/>
<polygon fill="#cab2d6" stroke="#cab2d6" points="372.767,-477.544 364.025,-483.529 374.591,-484.303 372.767,-477.544"/>
<text text-anchor="middle" x="485.5" y="-354.3" font-family="Symbol,fantasy" font-size="14.00" fill="#cab2d6">ELSE</text>
</g>
<!-- S51&#45;&gt;S49 -->
<g id="edge17" class="edge"><title>S51&#45;&gt;S49</title>
<path fill="none" stroke="#fdbf6f" d="M392.747,-242.095C387.159,-273.18 375.698,-336.932 369.059,-373.859"/>
<polygon fill="#fdbf6f" stroke="#fdbf6f" points="365.569,-373.491 367.244,-383.953 372.459,-374.73 365.569,-373.491"/>
<text text-anchor="middle" x="411.5" y="-309.3" font-family="Symbol,fantasy" font-size="14.00" fill="#fdbf6f">HYPHEN</text>
</g>
<!-- S53&#45;&gt;S44 -->
<g id="edge22" class="edge"><title>S53&#45;&gt;S44</title>
<path fill="none" stroke="#cab2d6" d="M235.705,-743.926C218.461,-738.869 200.369,-732.851 184,-726 165.15,-718.111 145.289,-707.244 128.863,-697.483"/>
<polygon fill="#cab2d6" stroke="#cab2d6" points="130.489,-694.376 120.12,-692.201 126.869,-700.368 130.489,-694.376"/>
<text text-anchor="middle" x="245" y="-714.3" font-family="Symbol,fantasy" font-size="14.00" fill="#cab2d6">ELSE_RECONSUME</text>
</g>
<!-- S53&#45;&gt;S46 -->
<g id="edge23" class="edge"><title>S53&#45;&gt;S46</title>
<path fill="none" stroke="#fdbf6f" d="M310,-743.766C310,-731.849 310,-716.038 310,-702.482"/>
<polygon fill="#fdbf6f" stroke="#fdbf6f" points="313.5,-702.21 310,-692.21 306.5,-702.21 313.5,-702.21"/>
<text text-anchor="middle" x="337.5" y="-714.3" font-family="Symbol,fantasy" font-size="14.00" fill="#fdbf6f">HYPHEN</text>
</g>
</g>
</svg>
