<?xml version="1.0" encoding="UTF-8" standalone="no"?>
<!DOCTYPE svg PUBLIC "-//W3C//DTD SVG 1.1//EN"
 "http://www.w3.org/Graphics/SVG/1.1/DTD/svg11.dtd">
<!-- Generated by graphviz version 2.36.0 (20140111.2315)
 -->
<!-- Title: rawtext Pages: 1 -->
<svg width="2027pt" height="708pt"
 viewBox="0.00 0.00 2027.00 708.00" xmlns="http://www.w3.org/2000/svg" xmlns:xlink="http://www.w3.org/1999/xlink">
<g id="graph0" class="graph" transform="scale(1 1) rotate(0) translate(4 704)">
<title>rawtext</title>
<polygon fill="white" stroke="none" points="-4,4 -4,-704 2023,-704 2023,4 -4,4"/>
<!-- S05 -->
<g id="node1" class="node"><title>S05</title>
<ellipse fill="none" stroke="#377eb8" cx="675" cy="-624" rx="72" ry="72"/>
<ellipse fill="none" stroke="#377eb8" cx="675" cy="-624" rx="76" ry="76"/>
<text text-anchor="middle" x="675" y="-620.3" font-family="Symbol,fantasy" font-size="14.00" fill="#377eb8">S05 RAWTEXT</text>
</g>
<!-- S05&#45;&gt;S05 -->
<g id="edge2" class="edge"><title>S05&#45;&gt;S05</title>
<path fill="none" stroke="#cab2d6" d="M749.083,-641.612C760.907,-639.035 769,-633.164 769,-624 769,-617.7 765.175,-612.956 758.941,-609.769"/>
<polygon fill="#cab2d6" stroke="#cab2d6" points="759.677,-606.321 749.083,-606.388 757.406,-612.943 759.677,-606.321"/>
<text text-anchor="middle" x="784.5" y="-620.3" font-family="Symbol,fantasy" font-size="14.00" fill="#cab2d6">ELSE</text>
</g>
<!-- S14 -->
<g id="node9" class="node"><title>S14</title>
<polygon fill="none" stroke="#377eb8" points="682,-496 474,-496 474,-458 682,-458 682,-496"/>
<text text-anchor="middle" x="578" y="-480.8" font-family="Symbol,fantasy" font-size="14.00" fill="#377eb8">S14 RAWTEXT less&#45;than sign</text>
<text text-anchor="middle" x="578" y="-465.8" font-family="Symbol,fantasy" font-size="14.00" fill="#377eb8">&lt;</text>
</g>
<!-- S05&#45;&gt;S14 -->
<g id="edge1" class="edge"><title>S05&#45;&gt;S14</title>
<path fill="none" stroke="#a6cee3" d="M608.009,-587.963C586.733,-573.157 565.709,-553.767 554,-530 550.041,-521.964 551.841,-513.144 555.837,-505.087"/>
<polygon fill="#a6cee3" stroke="#a6cee3" points="558.913,-506.765 561.092,-496.397 552.922,-503.143 558.913,-506.765"/>
<text text-anchor="middle" x="569.5" y="-518.3" font-family="Symbol,fantasy" font-size="14.00" fill="#a6cee3">LESS</text>
</g>
<!-- L02 -->
<g id="node2" class="node"><title>L02</title>
<polygon fill="none" stroke="#999999" points="774.205,-315 403.228,-315 307.795,-279 678.772,-279 774.205,-315"/>
<text text-anchor="middle" x="541" y="-293.3" font-family="Symbol,fantasy" font-size="14.00" fill="#999999">Create a new end tag and append</text>
</g>
<!-- L03 -->
<g id="node3" class="node"><title>L03</title>
<polygon fill="none" stroke="#999999" points="318.211,-226 64.9417,-226 -0.21133,-190 253.058,-190 318.211,-226"/>
<text text-anchor="middle" x="159" y="-204.3" font-family="Symbol,fantasy" font-size="14.00" fill="#999999">Append to current tag</text>
</g>
<!-- L04 -->
<g id="node4" class="node"><title>L04</title>
<polygon fill="none" stroke="#999999" points="626.012,-405 347.607,-405 275.988,-369 554.393,-369 626.012,-405"/>
<text text-anchor="middle" x="451" y="-383.3" font-family="Symbol,fantasy" font-size="14.00" fill="#999999">Create an emtpy end tag</text>
</g>
<!-- L06A -->
<g id="node5" class="node"><title>L06A</title>
<polygon fill="none" stroke="#999999" points="885.17,-226 449.027,-226 336.83,-190 772.973,-190 885.17,-226"/>
<text text-anchor="middle" x="611" y="-204.3" font-family="Symbol,fantasy" font-size="14.00" fill="#999999">Switch state for matching end tag token</text>
</g>
<!-- S36 -->
<g id="node12" class="node"><title>S36</title>
<polygon fill="none" stroke="#984ea3" points="701,-95 521,-95 521,-57 701,-57 701,-95"/>
<text text-anchor="middle" x="611" y="-79.8" font-family="Symbol,fantasy" font-size="14.00" fill="#984ea3">S36 After attribute name</text>
<text text-anchor="middle" x="611" y="-64.8" font-family="Symbol,fantasy" font-size="14.00" fill="#984ea3">&lt;foo bar_</text>
</g>
<!-- L06A&#45;&gt;S36 -->
<g id="edge17" class="edge"><title>L06A&#45;&gt;S36</title>
<path fill="none" stroke="#fdbf6f" d="M611,-189.737C611,-168.222 611,-131.157 611,-105.427"/>
<polygon fill="#fdbf6f" stroke="#fdbf6f" points="614.5,-105.172 611,-95.1721 607.5,-105.172 614.5,-105.172"/>
</g>
<!-- L06B -->
<g id="node6" class="node"><title>L06B</title>
<polygon fill="none" stroke="#999999" points="1452.17,-226 1016.03,-226 903.83,-190 1339.97,-190 1452.17,-226"/>
<text text-anchor="middle" x="1178" y="-204.3" font-family="Symbol,fantasy" font-size="14.00" fill="#999999">Switch state for matching end tag token</text>
</g>
<!-- S43 -->
<g id="node13" class="node"><title>S43</title>
<polygon fill="none" stroke="#a65628" points="1270,-95 1086,-95 1086,-57 1270,-57 1270,-95"/>
<text text-anchor="middle" x="1178" y="-79.8" font-family="Symbol,fantasy" font-size="14.00" fill="#a65628">S43 Self&#45;closing start tag</text>
<text text-anchor="middle" x="1178" y="-64.8" font-family="Symbol,fantasy" font-size="14.00" fill="#a65628">&lt;foo/</text>
</g>
<!-- L06B&#45;&gt;S43 -->
<g id="edge15" class="edge"><title>L06B&#45;&gt;S43</title>
<path fill="none" stroke="#fdbf6f" d="M1178,-189.737C1178,-168.222 1178,-131.157 1178,-105.427"/>
<polygon fill="#fdbf6f" stroke="#fdbf6f" points="1181.5,-105.172 1178,-95.1721 1174.5,-105.172 1181.5,-105.172"/>
</g>
<!-- L06C -->
<g id="node7" class="node"><title>L06C</title>
<polygon fill="none" stroke="#999999" points="2019.17,-226 1583.03,-226 1470.83,-190 1906.97,-190 2019.17,-226"/>
<text text-anchor="middle" x="1745" y="-204.3" font-family="Symbol,fantasy" font-size="14.00" fill="#999999">Switch state for matching end tag token</text>
</g>
<!-- S01 -->
<g id="node8" class="node"><title>S01</title>
<ellipse fill="none" stroke="#4daf4a" cx="1745" cy="-76" rx="72" ry="72"/>
<ellipse fill="none" stroke="#4daf4a" cx="1745" cy="-76" rx="76" ry="76"/>
<text text-anchor="middle" x="1745" y="-72.3" font-family="Symbol,fantasy" font-size="14.00" fill="#4daf4a">S01 Data</text>
</g>
<!-- L06C&#45;&gt;S01 -->
<g id="edge16" class="edge"><title>L06C&#45;&gt;S01</title>
<path fill="none" stroke="#fdbf6f" d="M1745,-189.737C1745,-182.095 1745,-172.492 1745,-162.131"/>
<polygon fill="#fdbf6f" stroke="#fdbf6f" points="1748.5,-162.005 1745,-152.005 1741.5,-162.005 1748.5,-162.005"/>
</g>
<!-- S14&#45;&gt;S05 -->
<g id="edge4" class="edge"><title>S14&#45;&gt;S05</title>
<path fill="none" stroke="#cab2d6" d="M587.837,-496.077C593.493,-506.202 600.872,-518.971 608,-530 613.131,-537.938 618.664,-546.133 624.274,-554.215"/>
<polygon fill="#cab2d6" stroke="#cab2d6" points="621.531,-556.398 630.135,-562.581 627.264,-552.382 621.531,-556.398"/>
<text text-anchor="middle" x="669" y="-518.3" font-family="Symbol,fantasy" font-size="14.00" fill="#cab2d6">ELSE_RECONSUME</text>
</g>
<!-- S14&#45;&gt;L04 -->
<g id="edge5" class="edge"><title>S14&#45;&gt;L04</title>
<path fill="none" stroke="#1f78b4" d="M551.993,-457.98C532.348,-444.367 505.245,-425.587 484.061,-410.909"/>
<polygon fill="#1f78b4" stroke="#1f78b4" points="485.891,-407.918 475.678,-405.099 481.904,-413.672 485.891,-407.918"/>
<text text-anchor="middle" x="555" y="-428.3" font-family="Symbol,fantasy" font-size="14.00" fill="#1f78b4">SOLIDUS</text>
</g>
<!-- S15 -->
<g id="node10" class="node"><title>S15</title>
<polygon fill="none" stroke="#377eb8" points="844,-406 644,-406 644,-368 844,-368 844,-406"/>
<text text-anchor="middle" x="744" y="-390.8" font-family="Symbol,fantasy" font-size="14.00" fill="#377eb8">S15 RAWTEXT end tag open</text>
<text text-anchor="middle" x="744" y="-375.8" font-family="Symbol,fantasy" font-size="14.00" fill="#377eb8">&lt;/</text>
</g>
<!-- S14&#45;&gt;S15 -->
<g id="edge3" class="edge"><title>S14&#45;&gt;S15</title>
<path fill="none" stroke="#1f78b4" d="M610.014,-457.858C628.109,-447.712 651.205,-434.944 672,-424 680.444,-419.556 689.506,-414.921 698.256,-410.514"/>
<polygon fill="#1f78b4" stroke="#1f78b4" points="699.849,-413.63 707.221,-406.021 696.713,-407.372 699.849,-413.63"/>
<text text-anchor="middle" x="701" y="-428.3" font-family="Symbol,fantasy" font-size="14.00" fill="#1f78b4">SOLIDUS</text>
</g>
<!-- S15&#45;&gt;S05 -->
<g id="edge7" class="edge"><title>S15&#45;&gt;S05</title>
<path fill="none" stroke="#cab2d6" d="M744.689,-406.449C745.167,-434.045 743.941,-487.385 730,-530 727.694,-537.048 724.789,-544.136 721.525,-551.085"/>
<polygon fill="#cab2d6" stroke="#cab2d6" points="718.184,-549.944 716.873,-560.458 724.454,-553.056 718.184,-549.944"/>
<text text-anchor="middle" x="805" y="-473.3" font-family="Symbol,fantasy" font-size="14.00" fill="#cab2d6">ELSE_RECONSUME</text>
</g>
<!-- S15&#45;&gt;L02 -->
<g id="edge8" class="edge"><title>S15&#45;&gt;L02</title>
<path fill="none" stroke="#b2df8a" d="M702.43,-367.98C669.773,-353.823 624.222,-334.076 589.83,-319.167"/>
<polygon fill="#b2df8a" stroke="#b2df8a" points="591.012,-315.866 580.445,-315.099 588.228,-322.288 591.012,-315.866"/>
<text text-anchor="middle" x="686" y="-338.3" font-family="Symbol,fantasy" font-size="14.00" fill="#b2df8a">LETTER</text>
</g>
<!-- S16 -->
<g id="node11" class="node"><title>S16</title>
<polygon fill="none" stroke="#377eb8" points="996,-316 792,-316 792,-278 996,-278 996,-316"/>
<text text-anchor="middle" x="894" y="-300.8" font-family="Symbol,fantasy" font-size="14.00" fill="#377eb8">S16 RAWTEXT end tag name</text>
<text text-anchor="middle" x="894" y="-285.8" font-family="Symbol,fantasy" font-size="14.00" fill="#377eb8">&lt;/foo</text>
</g>
<!-- S15&#45;&gt;S16 -->
<g id="edge6" class="edge"><title>S15&#45;&gt;S16</title>
<path fill="none" stroke="#b2df8a" d="M773.317,-367.961C789.881,-357.848 811.011,-345.078 830,-334 837.123,-329.845 844.733,-325.491 852.128,-321.304"/>
<polygon fill="#b2df8a" stroke="#b2df8a" points="854.336,-324.077 861.329,-316.117 850.899,-317.979 854.336,-324.077"/>
<text text-anchor="middle" x="855" y="-338.3" font-family="Symbol,fantasy" font-size="14.00" fill="#b2df8a">LETTER</text>
</g>
<!-- S16&#45;&gt;S05 -->
<g id="edge10" class="edge"><title>S16&#45;&gt;S05</title>
<path fill="none" stroke="#cab2d6" d="M896.576,-316.038C900.888,-352.933 905.882,-438.393 870,-496 843.234,-538.971 795.952,-570.303 754.65,-591.094"/>
<polygon fill="#cab2d6" stroke="#cab2d6" points="753.102,-587.955 745.665,-595.501 756.185,-594.24 753.102,-587.955"/>
<text text-anchor="middle" x="957" y="-428.3" font-family="Symbol,fantasy" font-size="14.00" fill="#cab2d6">ELSE_RECONSUME</text>
</g>
<!-- S16&#45;&gt;L03 -->
<g id="edge14" class="edge"><title>S16&#45;&gt;L03</title>
<path fill="none" stroke="#b2df8a" d="M791.813,-279.229C788.844,-278.806 785.902,-278.395 783,-278 698.064,-266.425 481.922,-243.024 327.876,-226.7"/>
<polygon fill="#b2df8a" stroke="#b2df8a" points="328.134,-223.208 317.821,-225.635 327.397,-230.169 328.134,-223.208"/>
<text text-anchor="middle" x="645" y="-248.3" font-family="Symbol,fantasy" font-size="14.00" fill="#b2df8a">LETTER</text>
</g>
<!-- S16&#45;&gt;L06A -->
<g id="edge11" class="edge"><title>S16&#45;&gt;L06A</title>
<path fill="none" stroke="#33a02c" d="M835.362,-277.974C789.014,-263.725 724.353,-243.847 676.347,-229.089"/>
<polygon fill="#33a02c" stroke="#33a02c" points="677.261,-225.708 666.674,-226.115 675.204,-232.399 677.261,-225.708"/>
<text text-anchor="middle" x="837" y="-248.3" font-family="Symbol,fantasy" font-size="14.00" fill="#33a02c">SPACE_RECONSUME</text>
</g>
<!-- S16&#45;&gt;L06B -->
<g id="edge12" class="edge"><title>S16&#45;&gt;L06B</title>
<path fill="none" stroke="#1f78b4" d="M952.845,-277.974C999.357,-263.725 1064.25,-243.847 1112.42,-229.089"/>
<polygon fill="#1f78b4" stroke="#1f78b4" points="1113.59,-232.391 1122.13,-226.115 1111.54,-225.698 1113.59,-232.391"/>
<text text-anchor="middle" x="1136.5" y="-248.3" font-family="Symbol,fantasy" font-size="14.00" fill="#1f78b4">SOLIDUS_RECONSUME</text>
</g>
<!-- S16&#45;&gt;L06C -->
<g id="edge13" class="edge"><title>S16&#45;&gt;L06C</title>
<path fill="none" stroke="#fb9a99" d="M996.227,-285.549C1138.65,-270.989 1398.72,-244.402 1571.73,-226.714"/>
<polygon fill="#fb9a99" stroke="#fb9a99" points="1572.11,-230.193 1581.7,-225.694 1571.4,-223.23 1572.11,-230.193"/>
<text text-anchor="middle" x="1472.5" y="-248.3" font-family="Symbol,fantasy" font-size="14.00" fill="#fb9a99">GREATER_RECONSUME</text>
</g>
<!-- S16&#45;&gt;S16 -->
<g id="edge9" class="edge"><title>S16&#45;&gt;S16</title>
<path fill="none" stroke="#b2df8a" d="M996.418,-303.836C1007.13,-302.501 1014,-300.223 1014,-297 1014,-294.935 1011.18,-293.258 1006.34,-291.969"/>
<polygon fill="#b2df8a" stroke="#b2df8a" points="1006.88,-288.51 996.418,-290.164 1005.63,-295.397 1006.88,-288.51"/>
<text text-anchor="middle" x="1039" y="-293.3" font-family="Symbol,fantasy" font-size="14.00" fill="#b2df8a">LETTER</text>
</g>
</g>
</svg>
