<?xml version="1.0" encoding="UTF-8" standalone="no"?>
<!DOCTYPE svg PUBLIC "-//W3C//DTD SVG 1.1//EN"
 "http://www.w3.org/Graphics/SVG/1.1/DTD/svg11.dtd">
<!-- Generated by graphviz version 2.36.0 (20140111.2315)
 -->
<!-- Title: rcdata Pages: 1 -->
<svg width="2031pt" height="708pt"
 viewBox="0.00 0.00 2031.00 708.00" xmlns="http://www.w3.org/2000/svg" xmlns:xlink="http://www.w3.org/1999/xlink">
<g id="graph0" class="graph" transform="scale(1 1) rotate(0) translate(4 704)">
<title>rcdata</title>
<polygon fill="white" stroke="none" points="-4,4 -4,-704 2027,-704 2027,4 -4,4"/>
<!-- S03 -->
<g id="node1" class="node"><title>S03</title>
<ellipse fill="none" stroke="#377eb8" cx="396" cy="-624" rx="72" ry="72"/>
<ellipse fill="none" stroke="#377eb8" cx="396" cy="-624" rx="76" ry="76"/>
<text text-anchor="middle" x="396" y="-620.3" font-family="Symbol,fantasy" font-size="14.00" fill="#377eb8">S03 RCDATA</text>
</g>
<!-- S03&#45;&gt;S03 -->
<g id="edge2" class="edge"><title>S03&#45;&gt;S03</title>
<path fill="none" stroke="#cab2d6" d="M470.083,-641.612C481.907,-639.035 490,-633.164 490,-624 490,-617.7 486.175,-612.956 479.941,-609.769"/>
<polygon fill="#cab2d6" stroke="#cab2d6" points="480.677,-606.321 470.083,-606.388 478.406,-612.943 480.677,-606.321"/>
<text text-anchor="middle" x="505.5" y="-620.3" font-family="Symbol,fantasy" font-size="14.00" fill="#cab2d6">ELSE</text>
</g>
<!-- S11 -->
<g id="node9" class="node"><title>S11</title>
<polygon fill="none" stroke="#377eb8" points="401.25,-496 200.75,-496 200.75,-458 401.25,-458 401.25,-496"/>
<text text-anchor="middle" x="301" y="-480.8" font-family="Symbol,fantasy" font-size="14.00" fill="#377eb8">S11 RCDATA less&#45;than sign</text>
<text text-anchor="middle" x="301" y="-465.8" font-family="Symbol,fantasy" font-size="14.00" fill="#377eb8">&lt;</text>
</g>
<!-- S03&#45;&gt;S11 -->
<g id="edge1" class="edge"><title>S03&#45;&gt;S11</title>
<path fill="none" stroke="#a6cee3" d="M329.009,-587.963C307.733,-573.157 286.709,-553.767 275,-530 270.938,-521.755 273.056,-512.796 277.471,-504.674"/>
<polygon fill="#a6cee3" stroke="#a6cee3" points="280.428,-506.547 282.979,-496.263 274.572,-502.711 280.428,-506.547"/>
<text text-anchor="middle" x="290.5" y="-518.3" font-family="Symbol,fantasy" font-size="14.00" fill="#a6cee3">LESS</text>
</g>
<!-- L02 -->
<g id="node2" class="node"><title>L02</title>
<polygon fill="none" stroke="#999999" points="499.205,-315 128.228,-315 32.7948,-279 403.772,-279 499.205,-315"/>
<text text-anchor="middle" x="266" y="-293.3" font-family="Symbol,fantasy" font-size="14.00" fill="#999999">Create a new end tag and append</text>
</g>
<!-- L03 -->
<g id="node3" class="node"><title>L03</title>
<polygon fill="none" stroke="#999999" points="322.211,-226 68.9417,-226 3.78867,-190 257.058,-190 322.211,-226"/>
<text text-anchor="middle" x="163" y="-204.3" font-family="Symbol,fantasy" font-size="14.00" fill="#999999">Append to current tag</text>
</g>
<!-- L04 -->
<g id="node4" class="node"><title>L04</title>
<polygon fill="none" stroke="#999999" points="350.012,-405 71.6074,-405 -0.0115158,-369 278.393,-369 350.012,-405"/>
<text text-anchor="middle" x="175" y="-383.3" font-family="Symbol,fantasy" font-size="14.00" fill="#999999">Create an emtpy end tag</text>
</g>
<!-- L06A -->
<g id="node5" class="node"><title>L06A</title>
<polygon fill="none" stroke="#999999" points="889.17,-226 453.027,-226 340.83,-190 776.973,-190 889.17,-226"/>
<text text-anchor="middle" x="615" y="-204.3" font-family="Symbol,fantasy" font-size="14.00" fill="#999999">Switch state for matching end tag token</text>
</g>
<!-- S36 -->
<g id="node12" class="node"><title>S36</title>
<polygon fill="none" stroke="#984ea3" points="705,-95 525,-95 525,-57 705,-57 705,-95"/>
<text text-anchor="middle" x="615" y="-79.8" font-family="Symbol,fantasy" font-size="14.00" fill="#984ea3">S36 After attribute name</text>
<text text-anchor="middle" x="615" y="-64.8" font-family="Symbol,fantasy" font-size="14.00" fill="#984ea3">&lt;foo bar_</text>
</g>
<!-- L06A&#45;&gt;S36 -->
<g id="edge18" class="edge"><title>L06A&#45;&gt;S36</title>
<path fill="none" stroke="#fdbf6f" d="M615,-189.737C615,-168.222 615,-131.157 615,-105.427"/>
<polygon fill="#fdbf6f" stroke="#fdbf6f" points="618.5,-105.172 615,-95.1721 611.5,-105.172 618.5,-105.172"/>
</g>
<!-- L06B -->
<g id="node6" class="node"><title>L06B</title>
<polygon fill="none" stroke="#999999" points="1456.17,-226 1020.03,-226 907.83,-190 1343.97,-190 1456.17,-226"/>
<text text-anchor="middle" x="1182" y="-204.3" font-family="Symbol,fantasy" font-size="14.00" fill="#999999">Switch state for matching end tag token</text>
</g>
<!-- S43 -->
<g id="node13" class="node"><title>S43</title>
<polygon fill="none" stroke="#a65628" points="1274,-95 1090,-95 1090,-57 1274,-57 1274,-95"/>
<text text-anchor="middle" x="1182" y="-79.8" font-family="Symbol,fantasy" font-size="14.00" fill="#a65628">S43 Self&#45;closing start tag</text>
<text text-anchor="middle" x="1182" y="-64.8" font-family="Symbol,fantasy" font-size="14.00" fill="#a65628">&lt;foo/</text>
</g>
<!-- L06B&#45;&gt;S43 -->
<g id="edge16" class="edge"><title>L06B&#45;&gt;S43</title>
<path fill="none" stroke="#fdbf6f" d="M1182,-189.737C1182,-168.222 1182,-131.157 1182,-105.427"/>
<polygon fill="#fdbf6f" stroke="#fdbf6f" points="1185.5,-105.172 1182,-95.1721 1178.5,-105.172 1185.5,-105.172"/>
</g>
<!-- L06C -->
<g id="node7" class="node"><title>L06C</title>
<polygon fill="none" stroke="#999999" points="2023.17,-226 1587.03,-226 1474.83,-190 1910.97,-190 2023.17,-226"/>
<text text-anchor="middle" x="1749" y="-204.3" font-family="Symbol,fantasy" font-size="14.00" fill="#999999">Switch state for matching end tag token</text>
</g>
<!-- S01 -->
<g id="node8" class="node"><title>S01</title>
<ellipse fill="none" stroke="#4daf4a" cx="1749" cy="-76" rx="72" ry="72"/>
<ellipse fill="none" stroke="#4daf4a" cx="1749" cy="-76" rx="76" ry="76"/>
<text text-anchor="middle" x="1749" y="-72.3" font-family="Symbol,fantasy" font-size="14.00" fill="#4daf4a">S01 Data</text>
</g>
<!-- L06C&#45;&gt;S01 -->
<g id="edge17" class="edge"><title>L06C&#45;&gt;S01</title>
<path fill="none" stroke="#fdbf6f" d="M1749,-189.737C1749,-182.095 1749,-172.492 1749,-162.131"/>
<polygon fill="#fdbf6f" stroke="#fdbf6f" points="1752.5,-162.005 1749,-152.005 1745.5,-162.005 1752.5,-162.005"/>
</g>
<!-- S11&#45;&gt;S03 -->
<g id="edge4" class="edge"><title>S11&#45;&gt;S03</title>
<path fill="none" stroke="#cab2d6" d="M310.027,-496.137C315.257,-506.28 322.147,-519.048 329,-530 334.014,-538.013 339.474,-546.254 345.042,-554.363"/>
<polygon fill="#cab2d6" stroke="#cab2d6" points="342.289,-556.535 350.869,-562.75 348.037,-552.54 342.289,-556.535"/>
<text text-anchor="middle" x="390" y="-518.3" font-family="Symbol,fantasy" font-size="14.00" fill="#cab2d6">ELSE_RECONSUME</text>
</g>
<!-- S11&#45;&gt;L04 -->
<g id="edge5" class="edge"><title>S11&#45;&gt;L04</title>
<path fill="none" stroke="#1f78b4" d="M275.198,-457.98C255.708,-444.367 228.818,-425.587 207.801,-410.909"/>
<polygon fill="#1f78b4" stroke="#1f78b4" points="209.686,-407.956 199.483,-405.099 205.678,-413.695 209.686,-407.956"/>
<text text-anchor="middle" x="279" y="-428.3" font-family="Symbol,fantasy" font-size="14.00" fill="#1f78b4">SOLIDUS</text>
</g>
<!-- S12 -->
<g id="node10" class="node"><title>S12</title>
<polygon fill="none" stroke="#377eb8" points="561.25,-406 368.75,-406 368.75,-368 561.25,-368 561.25,-406"/>
<text text-anchor="middle" x="465" y="-390.8" font-family="Symbol,fantasy" font-size="14.00" fill="#377eb8">S12 RCDATA end tag open</text>
<text text-anchor="middle" x="465" y="-375.8" font-family="Symbol,fantasy" font-size="14.00" fill="#377eb8">&lt;/</text>
</g>
<!-- S11&#45;&gt;S12 -->
<g id="edge3" class="edge"><title>S11&#45;&gt;S12</title>
<path fill="none" stroke="#1f78b4" d="M332.29,-457.792C349.987,-447.627 372.593,-434.86 393,-424 401.245,-419.612 410.091,-415.062 418.664,-410.734"/>
<polygon fill="#1f78b4" stroke="#1f78b4" points="420.448,-413.754 427.817,-406.141 417.309,-407.497 420.448,-413.754"/>
<text text-anchor="middle" x="422" y="-428.3" font-family="Symbol,fantasy" font-size="14.00" fill="#1f78b4">SOLIDUS</text>
</g>
<!-- S12&#45;&gt;S03 -->
<g id="edge7" class="edge"><title>S12&#45;&gt;S03</title>
<path fill="none" stroke="#cab2d6" d="M465.689,-406.449C466.167,-434.045 464.941,-487.385 451,-530 448.694,-537.048 445.789,-544.136 442.525,-551.085"/>
<polygon fill="#cab2d6" stroke="#cab2d6" points="439.184,-549.944 437.873,-560.458 445.454,-553.056 439.184,-549.944"/>
<text text-anchor="middle" x="526" y="-473.3" font-family="Symbol,fantasy" font-size="14.00" fill="#cab2d6">ELSE_RECONSUME</text>
</g>
<!-- S12&#45;&gt;L02 -->
<g id="edge8" class="edge"><title>S12&#45;&gt;L02</title>
<path fill="none" stroke="#b2df8a" d="M424.249,-367.98C392.236,-353.823 347.582,-334.076 313.867,-319.167"/>
<polygon fill="#b2df8a" stroke="#b2df8a" points="315.229,-315.943 304.668,-315.099 312.398,-322.345 315.229,-315.943"/>
<text text-anchor="middle" x="409" y="-338.3" font-family="Symbol,fantasy" font-size="14.00" fill="#b2df8a">LETTER</text>
</g>
<!-- S13 -->
<g id="node11" class="node"><title>S13</title>
<polygon fill="none" stroke="#377eb8" points="713,-316 517,-316 517,-278 713,-278 713,-316"/>
<text text-anchor="middle" x="615" y="-300.8" font-family="Symbol,fantasy" font-size="14.00" fill="#377eb8">S13 RCDATA end tag name</text>
<text text-anchor="middle" x="615" y="-285.8" font-family="Symbol,fantasy" font-size="14.00" fill="#377eb8">&lt;/foo</text>
</g>
<!-- S12&#45;&gt;S13 -->
<g id="edge6" class="edge"><title>S12&#45;&gt;S13</title>
<path fill="none" stroke="#b2df8a" d="M494.317,-367.961C510.881,-357.848 532.011,-345.078 551,-334 558.123,-329.845 565.733,-325.491 573.128,-321.304"/>
<polygon fill="#b2df8a" stroke="#b2df8a" points="575.336,-324.077 582.329,-316.117 571.899,-317.979 575.336,-324.077"/>
<text text-anchor="middle" x="576" y="-338.3" font-family="Symbol,fantasy" font-size="14.00" fill="#b2df8a">LETTER</text>
</g>
<!-- S13&#45;&gt;S03 -->
<g id="edge10" class="edge"><title>S13&#45;&gt;S03</title>
<path fill="none" stroke="#cab2d6" d="M617.576,-316.038C621.888,-352.933 626.882,-438.393 591,-496 564.234,-538.971 516.952,-570.303 475.65,-591.094"/>
<polygon fill="#cab2d6" stroke="#cab2d6" points="474.102,-587.955 466.665,-595.501 477.185,-594.24 474.102,-587.955"/>
<text text-anchor="middle" x="678" y="-428.3" font-family="Symbol,fantasy" font-size="14.00" fill="#cab2d6">ELSE_RECONSUME</text>
</g>
<!-- S13&#45;&gt;L03 -->
<g id="edge11" class="edge"><title>S13&#45;&gt;L03</title>
<path fill="none" stroke="#b2df8a" d="M516.795,-279.195C513.832,-278.779 510.895,-278.379 508,-278 423.458,-266.92 400.447,-277.514 317,-260 282.454,-252.749 244.822,-240.374 215.406,-229.63"/>
<polygon fill="#b2df8a" stroke="#b2df8a" points="216.355,-226.249 205.762,-226.059 213.924,-232.814 216.355,-226.249"/>
<text text-anchor="middle" x="342" y="-248.3" font-family="Symbol,fantasy" font-size="14.00" fill="#b2df8a">LETTER</text>
</g>
<!-- S13&#45;&gt;L03 -->
<g id="edge15" class="edge"><title>S13&#45;&gt;L03</title>
<path fill="none" stroke="#b2df8a" d="M532.768,-277.966C484.556,-267.591 422.422,-254.561 367,-244 337.744,-238.425 306.049,-232.791 276.561,-227.721"/>
<polygon fill="#b2df8a" stroke="#b2df8a" points="277.099,-224.263 266.651,-226.024 275.917,-231.162 277.099,-224.263"/>
<text text-anchor="middle" x="468" y="-248.3" font-family="Symbol,fantasy" font-size="14.00" fill="#b2df8a">LETTER</text>
</g>
<!-- S13&#45;&gt;L06A -->
<g id="edge12" class="edge"><title>S13&#45;&gt;L06A</title>
<path fill="none" stroke="#33a02c" d="M615,-277.974C615,-265.956 615,-249.934 615,-236.357"/>
<polygon fill="#33a02c" stroke="#33a02c" points="618.5,-236.115 615,-226.115 611.5,-236.115 618.5,-236.115"/>
<text text-anchor="middle" x="682" y="-248.3" font-family="Symbol,fantasy" font-size="14.00" fill="#33a02c">SPACE_RECONSUME</text>
</g>
<!-- S13&#45;&gt;L06B -->
<g id="edge13" class="edge"><title>S13&#45;&gt;L06B</title>
<path fill="none" stroke="#1f78b4" d="M713.117,-280.945C809.685,-266.128 957.356,-243.469 1061.12,-227.548"/>
<polygon fill="#1f78b4" stroke="#1f78b4" points="1061.66,-231.005 1071.02,-226.029 1060.6,-224.086 1061.66,-231.005"/>
<text text-anchor="middle" x="1024.5" y="-248.3" font-family="Symbol,fantasy" font-size="14.00" fill="#1f78b4">SOLIDUS_RECONSUME</text>
</g>
<!-- S13&#45;&gt;L06C -->
<g id="edge14" class="edge"><title>S13&#45;&gt;L06C</title>
<path fill="none" stroke="#fb9a99" d="M713.155,-288.908C811.707,-281.752 967.894,-270.316 1103,-260 1259.61,-248.041 1437.54,-233.958 1566.95,-223.624"/>
<polygon fill="#fb9a99" stroke="#fb9a99" points="1567.27,-227.109 1576.96,-222.824 1566.72,-220.131 1567.27,-227.109"/>
<text text-anchor="middle" x="1375.5" y="-248.3" font-family="Symbol,fantasy" font-size="14.00" fill="#fb9a99">GREATER_RECONSUME</text>
</g>
<!-- S13&#45;&gt;S13 -->
<g id="edge9" class="edge"><title>S13&#45;&gt;S13</title>
<path fill="none" stroke="#b2df8a" d="M713.168,-303.94C724.004,-302.622 731,-300.309 731,-297 731,-294.88 728.129,-293.169 723.216,-291.867"/>
<polygon fill="#b2df8a" stroke="#b2df8a" points="723.629,-288.385 713.168,-290.06 722.39,-295.274 723.629,-288.385"/>
<text text-anchor="middle" x="756" y="-293.3" font-family="Symbol,fantasy" font-size="14.00" fill="#b2df8a">LETTER</text>
</g>
</g>
</svg>
