<?xml version="1.0" encoding="UTF-8" standalone="no"?>
<!DOCTYPE svg PUBLIC "-//W3C//DTD SVG 1.1//EN"
 "http://www.w3.org/Graphics/SVG/1.1/DTD/svg11.dtd">
<!-- Generated by graphviz version 2.36.0 (20140111.2315)
 -->
<!-- Title: script Pages: 1 -->
<svg width="3350pt" height="1630pt"
 viewBox="0.00 0.00 3350.00 1630.00" xmlns="http://www.w3.org/2000/svg" xmlns:xlink="http://www.w3.org/1999/xlink">
<g id="graph0" class="graph" transform="scale(1 1) rotate(0) translate(4 1626)">
<title>script</title>
<polygon fill="white" stroke="none" points="-4,4 -4,-1626 3346,-1626 3346,4 -4,4"/>
<!-- S06 -->
<g id="node1" class="node"><title>S06</title>
<ellipse fill="none" stroke="#e41a1c" cx="2123" cy="-1546" rx="72" ry="72"/>
<ellipse fill="none" stroke="#e41a1c" cx="2123" cy="-1546" rx="76" ry="76"/>
<text text-anchor="middle" x="2123" y="-1542.3" font-family="Symbol,fantasy" font-size="14.00" fill="#e41a1c">S06 Script data</text>
</g>
<!-- S06&#45;&gt;S06 -->
<g id="edge2" class="edge"><title>S06&#45;&gt;S06</title>
<path fill="none" stroke="#cab2d6" d="M2197.08,-1563.61C2208.91,-1561.03 2217,-1555.16 2217,-1546 2217,-1539.7 2213.17,-1534.96 2206.94,-1531.77"/>
<polygon fill="#cab2d6" stroke="#cab2d6" points="2207.68,-1528.32 2197.08,-1528.39 2205.41,-1534.94 2207.68,-1528.32"/>
<text text-anchor="middle" x="2232.5" y="-1542.3" font-family="Symbol,fantasy" font-size="14.00" fill="#cab2d6">ELSE</text>
</g>
<!-- S17 -->
<g id="node11" class="node"><title>S17</title>
<polygon fill="none" stroke="#e41a1c" points="2164,-1418 1948,-1418 1948,-1380 2164,-1380 2164,-1418"/>
<text text-anchor="middle" x="2056" y="-1402.8" font-family="Symbol,fantasy" font-size="14.00" fill="#e41a1c">S17 Script data less&#45;than sign</text>
<text text-anchor="middle" x="2056" y="-1387.8" font-family="Symbol,fantasy" font-size="14.00" fill="#e41a1c">&lt;</text>
</g>
<!-- S06&#45;&gt;S17 -->
<g id="edge1" class="edge"><title>S06&#45;&gt;S17</title>
<path fill="none" stroke="#a6cee3" d="M2056.01,-1509.96C2034.73,-1495.16 2013.71,-1475.77 2002,-1452 1996.92,-1441.69 2001.77,-1432.31 2010.3,-1424.44"/>
<polygon fill="#a6cee3" stroke="#a6cee3" points="2012.52,-1427.15 2018.19,-1418.2 2008.18,-1421.66 2012.52,-1427.15"/>
<text text-anchor="middle" x="2017.5" y="-1440.3" font-family="Symbol,fantasy" font-size="14.00" fill="#a6cee3">LESS</text>
</g>
<!-- L02 -->
<g id="node2" class="node"><title>L02</title>
<polygon fill="none" stroke="#999999" points="2088.21,-855 1717.23,-855 1621.79,-819 1992.77,-819 2088.21,-855"/>
<text text-anchor="middle" x="1855" y="-833.3" font-family="Symbol,fantasy" font-size="14.00" fill="#999999">Create a new end tag and append</text>
</g>
<!-- L03 -->
<g id="node3" class="node"><title>L03</title>
<polygon fill="none" stroke="#999999" points="1963.21,-202 1709.94,-202 1644.79,-166 1898.06,-166 1963.21,-202"/>
<text text-anchor="middle" x="1804" y="-180.3" font-family="Symbol,fantasy" font-size="14.00" fill="#999999">Append to current tag</text>
</g>
<!-- L04 -->
<g id="node4" class="node"><title>L04</title>
<polygon fill="none" stroke="#999999" points="2924.01,-291 2645.61,-291 2573.99,-255 2852.39,-255 2924.01,-291"/>
<text text-anchor="middle" x="2749" y="-269.3" font-family="Symbol,fantasy" font-size="14.00" fill="#999999">Create an emtpy end tag</text>
</g>
<!-- L06A -->
<g id="node5" class="node"><title>L06A</title>
<polygon fill="none" stroke="#999999" points="576.17,-765 140.027,-765 27.8302,-729 463.973,-729 576.17,-765"/>
<text text-anchor="middle" x="302" y="-743.3" font-family="Symbol,fantasy" font-size="14.00" fill="#999999">Switch state for matching end tag token</text>
</g>
<!-- S36 -->
<g id="node28" class="node"><title>S36</title>
<polygon fill="none" stroke="#984ea3" points="392,-619 212,-619 212,-581 392,-581 392,-619"/>
<text text-anchor="middle" x="302" y="-603.8" font-family="Symbol,fantasy" font-size="14.00" fill="#984ea3">S36 After attribute name</text>
<text text-anchor="middle" x="302" y="-588.8" font-family="Symbol,fantasy" font-size="14.00" fill="#984ea3">&lt;foo bar_</text>
</g>
<!-- L06A&#45;&gt;S36 -->
<g id="edge72" class="edge"><title>L06A&#45;&gt;S36</title>
<path fill="none" stroke="#fdbf6f" d="M302,-728.797C302,-704.21 302,-658.733 302,-629.186"/>
<polygon fill="#fdbf6f" stroke="#fdbf6f" points="305.5,-629.089 302,-619.089 298.5,-629.089 305.5,-629.089"/>
</g>
<!-- L06B -->
<g id="node6" class="node"><title>L06B</title>
<polygon fill="none" stroke="#999999" points="1143.17,-765 707.027,-765 594.83,-729 1030.97,-729 1143.17,-765"/>
<text text-anchor="middle" x="869" y="-743.3" font-family="Symbol,fantasy" font-size="14.00" fill="#999999">Switch state for matching end tag token</text>
</g>
<!-- S43 -->
<g id="node29" class="node"><title>S43</title>
<polygon fill="none" stroke="#a65628" points="961,-619 777,-619 777,-581 961,-581 961,-619"/>
<text text-anchor="middle" x="869" y="-603.8" font-family="Symbol,fantasy" font-size="14.00" fill="#a65628">S43 Self&#45;closing start tag</text>
<text text-anchor="middle" x="869" y="-588.8" font-family="Symbol,fantasy" font-size="14.00" fill="#a65628">&lt;foo/</text>
</g>
<!-- L06B&#45;&gt;S43 -->
<g id="edge70" class="edge"><title>L06B&#45;&gt;S43</title>
<path fill="none" stroke="#fdbf6f" d="M869,-728.797C869,-704.21 869,-658.733 869,-629.186"/>
<polygon fill="#fdbf6f" stroke="#fdbf6f" points="872.5,-629.089 869,-619.089 865.5,-629.089 872.5,-629.089"/>
</g>
<!-- L06C -->
<g id="node7" class="node"><title>L06C</title>
<polygon fill="none" stroke="#999999" points="1747.17,-765 1311.03,-765 1198.83,-729 1634.97,-729 1747.17,-765"/>
<text text-anchor="middle" x="1473" y="-743.3" font-family="Symbol,fantasy" font-size="14.00" fill="#999999">Switch state for matching end tag token</text>
</g>
<!-- S01 -->
<g id="node10" class="node"><title>S01</title>
<ellipse fill="none" stroke="#4daf4a" cx="1473" cy="-600" rx="72" ry="72"/>
<ellipse fill="none" stroke="#4daf4a" cx="1473" cy="-600" rx="76" ry="76"/>
<text text-anchor="middle" x="1473" y="-596.3" font-family="Symbol,fantasy" font-size="14.00" fill="#4daf4a">S01 Data</text>
</g>
<!-- L06C&#45;&gt;S01 -->
<g id="edge71" class="edge"><title>L06C&#45;&gt;S01</title>
<path fill="none" stroke="#fdbf6f" d="M1473,-728.797C1473,-717.739 1473,-702.456 1473,-686.296"/>
<polygon fill="#fdbf6f" stroke="#fdbf6f" points="1476.5,-686.151 1473,-676.151 1469.5,-686.151 1476.5,-686.151"/>
</g>
<!-- L08A -->
<g id="node8" class="node"><title>L08A</title>
<polygon fill="none" stroke="#999999" points="2712.47,-855 2379.25,-855 2293.53,-819 2626.75,-819 2712.47,-855"/>
<text text-anchor="middle" x="2503" y="-833.3" font-family="Symbol,fantasy" font-size="14.00" fill="#999999">Switch state for script end tag</text>
</g>
<!-- S29 -->
<g id="node23" class="node"><title>S29</title>
<polygon fill="none" stroke="#e41a1c" points="2651.25,-766 2426.75,-766 2426.75,-728 2651.25,-728 2651.25,-766"/>
<text text-anchor="middle" x="2539" y="-750.8" font-family="Symbol,fantasy" font-size="14.00" fill="#e41a1c">S29 Script data double escaped</text>
<text text-anchor="middle" x="2539" y="-735.8" font-family="Symbol,fantasy" font-size="14.00" fill="#e41a1c">&lt;!&#45;&#45; &lt;script&gt;</text>
</g>
<!-- L08A&#45;&gt;S29 -->
<g id="edge73" class="edge"><title>L08A&#45;&gt;S29</title>
<path fill="none" stroke="#fdbf6f" d="M2510.11,-818.614C2515.09,-806.441 2521.85,-789.916 2527.58,-775.912"/>
<polygon fill="#fdbf6f" stroke="#fdbf6f" points="2530.98,-776.839 2531.53,-766.259 2524.5,-774.189 2530.98,-776.839"/>
</g>
<!-- L08B -->
<g id="node9" class="node"><title>L08B</title>
<polygon fill="none" stroke="#999999" points="2588.47,-202 2255.25,-202 2169.53,-166 2502.75,-166 2588.47,-202"/>
<text text-anchor="middle" x="2379" y="-180.3" font-family="Symbol,fantasy" font-size="14.00" fill="#999999">Switch state for script end tag</text>
</g>
<!-- S22 -->
<g id="node16" class="node"><title>S22</title>
<polygon fill="none" stroke="#e41a1c" points="3066,-128 2892,-128 2892,-90 3066,-90 3066,-128"/>
<text text-anchor="middle" x="2979" y="-112.8" font-family="Symbol,fantasy" font-size="14.00" fill="#e41a1c">S22 Script data escaped</text>
<text text-anchor="middle" x="2979" y="-97.8" font-family="Symbol,fantasy" font-size="14.00" fill="#e41a1c">&lt;!&#45;&#45; foo</text>
</g>
<!-- L08B&#45;&gt;S22 -->
<g id="edge69" class="edge"><title>L08B&#45;&gt;S22</title>
<path fill="none" stroke="#fdbf6f" d="M2506.61,-167.474C2618.83,-153.821 2779.76,-134.241 2881.81,-121.825"/>
<polygon fill="#fdbf6f" stroke="#fdbf6f" points="2882.3,-125.291 2891.8,-120.609 2881.45,-118.342 2882.3,-125.291"/>
</g>
<!-- S17&#45;&gt;S06 -->
<g id="edge5" class="edge"><title>S17&#45;&gt;S06</title>
<path fill="none" stroke="#cab2d6" d="M2053.3,-1418.23C2052.45,-1428.41 2052.51,-1441.17 2056,-1452 2059.03,-1461.37 2063.39,-1470.6 2068.45,-1479.39"/>
<polygon fill="#cab2d6" stroke="#cab2d6" points="2065.52,-1481.31 2073.73,-1488.01 2071.5,-1477.66 2065.52,-1481.31"/>
<text text-anchor="middle" x="2117" y="-1440.3" font-family="Symbol,fantasy" font-size="14.00" fill="#cab2d6">ELSE_RECONSUME</text>
</g>
<!-- S17&#45;&gt;L04 -->
<g id="edge6" class="edge"><title>S17&#45;&gt;L04</title>
<path fill="none" stroke="#1f78b4" d="M2056.33,-1379.8C2056.62,-1362 2057,-1334.14 2057,-1310 2057,-1310 2057,-1310 2057,-1016 2057,-992.066 2056.44,-982.997 2071,-964 2080.69,-951.354 2094.05,-959.807 2102,-946 2110.43,-931.363 2102.47,-924.882 2102,-908 2100.89,-867.954 2102.21,-857.722 2097,-818 2074.43,-645.832 1934.6,-582.255 2025,-434 2079.23,-345.057 1973.09,-404.412 2492,-310 2536.31,-301.938 2585.2,-294.683 2628.34,-288.834"/>
<polygon fill="#1f78b4" stroke="#1f78b4" points="2628.87,-292.295 2638.31,-287.493 2627.93,-285.357 2628.87,-292.295"/>
<text text-anchor="middle" x="2131" y="-878.3" font-family="Symbol,fantasy" font-size="14.00" fill="#1f78b4">SOLIDUS</text>
</g>
<!-- S18 -->
<g id="node12" class="node"><title>S18</title>
<polygon fill="none" stroke="#e41a1c" points="1936,-1272 1728,-1272 1728,-1234 1936,-1234 1936,-1272"/>
<text text-anchor="middle" x="1832" y="-1256.8" font-family="Symbol,fantasy" font-size="14.00" fill="#e41a1c">S18 Script data end tag open</text>
<text text-anchor="middle" x="1832" y="-1241.8" font-family="Symbol,fantasy" font-size="14.00" fill="#e41a1c">&lt;/</text>
</g>
<!-- S17&#45;&gt;S18 -->
<g id="edge3" class="edge"><title>S17&#45;&gt;S18</title>
<path fill="none" stroke="#1f78b4" d="M2017.86,-1379.94C2007.06,-1374.49 1995.42,-1368.27 1985,-1362 1941.34,-1335.71 1893.78,-1301.12 1863.46,-1278.25"/>
<polygon fill="#1f78b4" stroke="#1f78b4" points="1865.47,-1275.38 1855.39,-1272.13 1861.24,-1280.96 1865.47,-1275.38"/>
<text text-anchor="middle" x="2014" y="-1350.3" font-family="Symbol,fantasy" font-size="14.00" fill="#1f78b4">SOLIDUS</text>
</g>
<!-- S20 -->
<g id="node14" class="node"><title>S20</title>
<polygon fill="none" stroke="#e41a1c" points="2515,-1328 2315,-1328 2315,-1290 2515,-1290 2515,-1328"/>
<text text-anchor="middle" x="2415" y="-1312.8" font-family="Symbol,fantasy" font-size="14.00" fill="#e41a1c">S20 Script data escape start</text>
<text text-anchor="middle" x="2415" y="-1297.8" font-family="Symbol,fantasy" font-size="14.00" fill="#e41a1c">&lt;!</text>
</g>
<!-- S17&#45;&gt;S20 -->
<g id="edge4" class="edge"><title>S17&#45;&gt;S20</title>
<path fill="none" stroke="#fdbf6f" d="M2129.52,-1379.98C2188.1,-1365.62 2270.16,-1345.5 2331.27,-1330.52"/>
<polygon fill="#fdbf6f" stroke="#fdbf6f" points="2332.4,-1333.85 2341.28,-1328.07 2330.73,-1327.05 2332.4,-1333.85"/>
<text text-anchor="middle" x="2317.5" y="-1350.3" font-family="Symbol,fantasy" font-size="14.00" fill="#fdbf6f">EXCLAMATION</text>
</g>
<!-- S18&#45;&gt;S06 -->
<g id="edge8" class="edge"><title>S18&#45;&gt;S06</title>
<path fill="none" stroke="#cab2d6" d="M1823.51,-1272.07C1809.71,-1304.37 1786.84,-1372.82 1817,-1418 1865.73,-1490.99 1965.07,-1522.08 2037.38,-1535.3"/>
<polygon fill="#cab2d6" stroke="#cab2d6" points="2036.94,-1538.78 2047.4,-1537.05 2038.15,-1531.88 2036.94,-1538.78"/>
<text text-anchor="middle" x="1878" y="-1395.3" font-family="Symbol,fantasy" font-size="14.00" fill="#cab2d6">ELSE_RECONSUME</text>
</g>
<!-- S18&#45;&gt;L02 -->
<g id="edge9" class="edge"><title>S18&#45;&gt;L02</title>
<path fill="none" stroke="#b2df8a" d="M1835.24,-1233.82C1838.49,-1214.01 1843,-1181.36 1843,-1153 1843,-1153 1843,-1153 1843,-926 1843,-905.442 1846.25,-882.428 1849.37,-865.093"/>
<polygon fill="#b2df8a" stroke="#b2df8a" points="1852.84,-865.583 1851.27,-855.105 1845.97,-864.278 1852.84,-865.583"/>
<text text-anchor="middle" x="1868" y="-1058.3" font-family="Symbol,fantasy" font-size="14.00" fill="#b2df8a">LETTER</text>
</g>
<!-- S19 -->
<g id="node13" class="node"><title>S19</title>
<polygon fill="none" stroke="#e41a1c" points="1140,-856 928,-856 928,-818 1140,-818 1140,-856"/>
<text text-anchor="middle" x="1034" y="-840.8" font-family="Symbol,fantasy" font-size="14.00" fill="#e41a1c">S19 Script data end tag name</text>
<text text-anchor="middle" x="1034" y="-825.8" font-family="Symbol,fantasy" font-size="14.00" fill="#e41a1c">&lt;/foo</text>
</g>
<!-- S18&#45;&gt;S19 -->
<g id="edge7" class="edge"><title>S18&#45;&gt;S19</title>
<path fill="none" stroke="#b2df8a" d="M1727.85,-1250.15C1592.42,-1244.85 1373,-1225.15 1373,-1153 1373,-1153 1373,-1153 1373,-926 1373,-902.412 1248.45,-875.088 1150.34,-857.223"/>
<polygon fill="#b2df8a" stroke="#b2df8a" points="1150.79,-853.748 1140.33,-855.416 1149.55,-860.637 1150.79,-853.748"/>
<text text-anchor="middle" x="1398" y="-1058.3" font-family="Symbol,fantasy" font-size="14.00" fill="#b2df8a">LETTER</text>
</g>
<!-- S19&#45;&gt;S06 -->
<g id="edge11" class="edge"><title>S19&#45;&gt;S06</title>
<path fill="none" stroke="#cab2d6" d="M1093.7,-856.006C1125.04,-869.537 1157,-891.735 1157,-926 1157,-1400 1157,-1400 1157,-1400 1157,-1488.51 1799.45,-1529.09 2036.5,-1541.05"/>
<polygon fill="#cab2d6" stroke="#cab2d6" points="2036.63,-1544.56 2046.8,-1541.57 2036.98,-1537.57 2036.63,-1544.56"/>
<text text-anchor="middle" x="1218" y="-1148.3" font-family="Symbol,fantasy" font-size="14.00" fill="#cab2d6">ELSE_RECONSUME</text>
</g>
<!-- S19&#45;&gt;L03 -->
<g id="edge15" class="edge"><title>S19&#45;&gt;L03</title>
<path fill="none" stroke="#b2df8a" d="M1034.56,-817.809C1035.91,-806.47 1039.56,-792.473 1049,-784 1083.58,-752.958 1117.23,-796.832 1152,-766 1173.88,-746.596 1171,-732.246 1171,-703 1171,-703 1171,-703 1171,-272 1171,-221.418 1492.33,-198.75 1677.1,-189.896"/>
<polygon fill="#b2df8a" stroke="#b2df8a" points="1677.34,-193.389 1687.16,-189.421 1677.01,-186.397 1677.34,-193.389"/>
<text text-anchor="middle" x="1196" y="-449.3" font-family="Symbol,fantasy" font-size="14.00" fill="#b2df8a">LETTER</text>
</g>
<!-- S19&#45;&gt;L06A -->
<g id="edge12" class="edge"><title>S19&#45;&gt;L06A</title>
<path fill="none" stroke="#33a02c" d="M927.78,-823.677C868.658,-816.785 793.737,-807.996 727,-800 634.986,-788.976 531.801,-776.357 450.146,-766.311"/>
<polygon fill="#33a02c" stroke="#33a02c" points="450.142,-762.784 439.789,-765.036 449.287,-769.732 450.142,-762.784"/>
<text text-anchor="middle" x="794" y="-788.3" font-family="Symbol,fantasy" font-size="14.00" fill="#33a02c">SPACE_RECONSUME</text>
</g>
<!-- S19&#45;&gt;L06B -->
<g id="edge13" class="edge"><title>S19&#45;&gt;L06B</title>
<path fill="none" stroke="#1f78b4" d="M927.82,-822.845C901.989,-817.429 879.361,-810.009 871,-800 865.4,-793.296 863.745,-784.239 863.853,-775.561"/>
<polygon fill="#1f78b4" stroke="#1f78b4" points="867.362,-775.609 864.714,-765.35 860.386,-775.021 867.362,-775.609"/>
<text text-anchor="middle" x="945.5" y="-788.3" font-family="Symbol,fantasy" font-size="14.00" fill="#1f78b4">SOLIDUS_RECONSUME</text>
</g>
<!-- S19&#45;&gt;L06C -->
<g id="edge14" class="edge"><title>S19&#45;&gt;L06C</title>
<path fill="none" stroke="#fb9a99" d="M1040.88,-817.92C1046.35,-806.168 1055.23,-791.655 1068,-784 1077.95,-778.033 1184.54,-768.697 1285.86,-761.028"/>
<polygon fill="#fb9a99" stroke="#fb9a99" points="1286.25,-764.509 1295.96,-760.268 1285.72,-757.529 1286.25,-764.509"/>
<text text-anchor="middle" x="1144.5" y="-788.3" font-family="Symbol,fantasy" font-size="14.00" fill="#fb9a99">GREATER_RECONSUME</text>
</g>
<!-- S19&#45;&gt;S19 -->
<g id="edge10" class="edge"><title>S19&#45;&gt;S19</title>
<path fill="none" stroke="#b2df8a" d="M1140.27,-843.782C1151.09,-842.44 1158,-840.18 1158,-837 1158,-834.963 1155.17,-833.303 1150.28,-832.021"/>
<polygon fill="#b2df8a" stroke="#b2df8a" points="1150.73,-828.546 1140.27,-830.218 1149.49,-835.435 1150.73,-828.546"/>
<text text-anchor="middle" x="1183" y="-833.3" font-family="Symbol,fantasy" font-size="14.00" fill="#b2df8a">LETTER</text>
</g>
<!-- S20&#45;&gt;S06 -->
<g id="edge17" class="edge"><title>S20&#45;&gt;S06</title>
<path fill="none" stroke="#cab2d6" d="M2401.29,-1328.24C2393.05,-1338.66 2382.05,-1351.66 2371,-1362 2315.94,-1413.51 2246.36,-1463.76 2194.92,-1498.53"/>
<polygon fill="#cab2d6" stroke="#cab2d6" points="2192.85,-1495.7 2186.51,-1504.19 2196.76,-1501.51 2192.85,-1495.7"/>
<text text-anchor="middle" x="2412" y="-1395.3" font-family="Symbol,fantasy" font-size="14.00" fill="#cab2d6">ELSE_RECONSUME</text>
</g>
<!-- S21 -->
<g id="node15" class="node"><title>S21</title>
<polygon fill="none" stroke="#e41a1c" points="2661.25,-1216 2424.75,-1216 2424.75,-1178 2661.25,-1178 2661.25,-1216"/>
<text text-anchor="middle" x="2543" y="-1200.8" font-family="Symbol,fantasy" font-size="14.00" fill="#e41a1c">S21 Script data escape start dash</text>
<text text-anchor="middle" x="2543" y="-1185.8" font-family="Symbol,fantasy" font-size="14.00" fill="#e41a1c">&lt;!&#45;</text>
</g>
<!-- S20&#45;&gt;S21 -->
<g id="edge16" class="edge"><title>S20&#45;&gt;S21</title>
<path fill="none" stroke="#fdbf6f" d="M2426.34,-1289.78C2437.09,-1273.6 2454.47,-1250.09 2474,-1234 2479.66,-1229.33 2486.03,-1225.03 2492.54,-1221.14"/>
<polygon fill="#fdbf6f" stroke="#fdbf6f" points="2494.48,-1224.06 2501.47,-1216.1 2491.04,-1217.96 2494.48,-1224.06"/>
<text text-anchor="middle" x="2501.5" y="-1249.3" font-family="Symbol,fantasy" font-size="14.00" fill="#fdbf6f">HYPHEN</text>
</g>
<!-- S21&#45;&gt;S06 -->
<g id="edge19" class="edge"><title>S21&#45;&gt;S06</title>
<path fill="none" stroke="#cab2d6" d="M2543.53,-1216.17C2543.71,-1258.69 2537.72,-1365.07 2477,-1418 2400.46,-1484.73 2286.27,-1517.25 2208.42,-1532.5"/>
<polygon fill="#cab2d6" stroke="#cab2d6" points="2207.34,-1529.15 2198.17,-1534.45 2208.64,-1536.02 2207.34,-1529.15"/>
<text text-anchor="middle" x="2584" y="-1350.3" font-family="Symbol,fantasy" font-size="14.00" fill="#cab2d6">ELSE_RECONSUME</text>
</g>
<!-- S24 -->
<g id="node18" class="node"><title>S24</title>
<polygon fill="none" stroke="#e41a1c" points="3053.25,-1126 2806.75,-1126 2806.75,-1088 3053.25,-1088 3053.25,-1126"/>
<text text-anchor="middle" x="2930" y="-1110.8" font-family="Symbol,fantasy" font-size="14.00" fill="#e41a1c">S24 Script data escaped dash dash</text>
<text text-anchor="middle" x="2930" y="-1095.8" font-family="Symbol,fantasy" font-size="14.00" fill="#e41a1c">&lt;!&#45;&#45;</text>
</g>
<!-- S21&#45;&gt;S24 -->
<g id="edge18" class="edge"><title>S21&#45;&gt;S24</title>
<path fill="none" stroke="#fdbf6f" d="M2622.25,-1177.98C2685.67,-1163.56 2774.59,-1143.34 2840.55,-1128.34"/>
<polygon fill="#fdbf6f" stroke="#fdbf6f" points="2841.55,-1131.7 2850.53,-1126.07 2840,-1124.88 2841.55,-1131.7"/>
<text text-anchor="middle" x="2799.5" y="-1148.3" font-family="Symbol,fantasy" font-size="14.00" fill="#fdbf6f">HYPHEN</text>
</g>
<!-- S22&#45;&gt;S22 -->
<g id="edge22" class="edge"><title>S22&#45;&gt;S22</title>
<path fill="none" stroke="#cab2d6" d="M3066.3,-115.164C3076.99,-114.061 3084,-112.006 3084,-109 3084,-107.074 3081.12,-105.539 3076.25,-104.394"/>
<polygon fill="#cab2d6" stroke="#cab2d6" points="3076.72,-100.926 3066.3,-102.836 3075.64,-107.842 3076.72,-100.926"/>
<text text-anchor="middle" x="3099.5" y="-105.3" font-family="Symbol,fantasy" font-size="14.00" fill="#cab2d6">ELSE</text>
</g>
<!-- S23 -->
<g id="node17" class="node"><title>S23</title>
<polygon fill="none" stroke="#e41a1c" points="3257.25,-38 3046.75,-38 3046.75,-0 3257.25,-0 3257.25,-38"/>
<text text-anchor="middle" x="3152" y="-22.8" font-family="Symbol,fantasy" font-size="14.00" fill="#e41a1c">S23 Script data escaped dash</text>
<text text-anchor="middle" x="3152" y="-7.8" font-family="Symbol,fantasy" font-size="14.00" fill="#e41a1c">&lt;!&#45;&#45; &#45;</text>
</g>
<!-- S22&#45;&gt;S23 -->
<g id="edge20" class="edge"><title>S22&#45;&gt;S23</title>
<path fill="none" stroke="#fdbf6f" d="M3014.43,-89.9795C3041.28,-76.322 3078.35,-57.4618 3107.25,-42.762"/>
<polygon fill="#fdbf6f" stroke="#fdbf6f" points="3109,-45.8009 3116.32,-38.1474 3105.82,-39.5617 3109,-45.8009"/>
<text text-anchor="middle" x="3108.5" y="-60.3" font-family="Symbol,fantasy" font-size="14.00" fill="#fdbf6f">HYPHEN</text>
</g>
<!-- S25 -->
<g id="node19" class="node"><title>S25</title>
<polygon fill="none" stroke="#e41a1c" points="3068,-1036 2792,-1036 2792,-998 3068,-998 3068,-1036"/>
<text text-anchor="middle" x="2930" y="-1020.8" font-family="Symbol,fantasy" font-size="14.00" fill="#e41a1c">S25 Script data escaped less&#45;than sign</text>
<text text-anchor="middle" x="2930" y="-1005.8" font-family="Symbol,fantasy" font-size="14.00" fill="#e41a1c">&lt;!&#45;&#45; &lt;</text>
</g>
<!-- S22&#45;&gt;S25 -->
<g id="edge21" class="edge"><title>S22&#45;&gt;S25</title>
<path fill="none" stroke="#a6cee3" d="M3066.09,-124.064C3096.41,-134.354 3123,-152.168 3123,-183 3123,-928 3123,-928 3123,-928 3123,-960.622 3099.89,-981.205 3069.66,-994.174"/>
<polygon fill="#a6cee3" stroke="#a6cee3" points="3068.09,-991.032 3060.07,-997.959 3070.66,-997.544 3068.09,-991.032"/>
<text text-anchor="middle" x="3138.5" y="-494.3" font-family="Symbol,fantasy" font-size="14.00" fill="#a6cee3">LESS</text>
</g>
<!-- S23&#45;&gt;S22 -->
<g id="edge25" class="edge"><title>S23&#45;&gt;S22</title>
<path fill="none" stroke="#cab2d6" d="M3051.15,-38.1097C3038.71,-42.7708 3026.64,-48.6314 3016,-56 3006.68,-62.4524 2998.9,-72.0522 2992.92,-81.2533"/>
<polygon fill="#cab2d6" stroke="#cab2d6" points="2989.91,-79.4663 2987.74,-89.8372 2995.9,-83.0813 2989.91,-79.4663"/>
<text text-anchor="middle" x="3031.5" y="-60.3" font-family="Symbol,fantasy" font-size="14.00" fill="#cab2d6">ELSE</text>
</g>
<!-- S23&#45;&gt;S24 -->
<g id="edge23" class="edge"><title>S23&#45;&gt;S24</title>
<path fill="none" stroke="#fdbf6f" d="M3221.87,-38.074C3254.81,-51.2279 3287,-73.0284 3287,-108 3287,-1018 3287,-1018 3287,-1018 3287,-1065.8 3164.82,-1087.79 3063.42,-1097.81"/>
<polygon fill="#fdbf6f" stroke="#fdbf6f" points="3062.98,-1094.33 3053.36,-1098.77 3063.65,-1101.3 3062.98,-1094.33"/>
<text text-anchor="middle" x="3314.5" y="-494.3" font-family="Symbol,fantasy" font-size="14.00" fill="#fdbf6f">HYPHEN</text>
</g>
<!-- S23&#45;&gt;S25 -->
<g id="edge24" class="edge"><title>S23&#45;&gt;S25</title>
<path fill="none" stroke="#a6cee3" d="M3153.12,-38.1878C3156.9,-101.483 3169,-318.011 3169,-497 3169,-928 3169,-928 3169,-928 3169,-960.684 3145.87,-964.682 3117,-980 3104.78,-986.484 3091.56,-991.81 3077.99,-996.183"/>
<polygon fill="#a6cee3" stroke="#a6cee3" points="3076.61,-992.945 3068.06,-999.202 3078.64,-999.643 3076.61,-992.945"/>
<text text-anchor="middle" x="3184.5" y="-449.3" font-family="Symbol,fantasy" font-size="14.00" fill="#a6cee3">LESS</text>
</g>
<!-- S24&#45;&gt;S06 -->
<g id="edge28" class="edge"><title>S24&#45;&gt;S06</title>
<path fill="none" stroke="#fb9a99" d="M2806.55,-1111.31C2606.83,-1118.34 2235,-1139.07 2235,-1196 2235,-1400 2235,-1400 2235,-1400 2235,-1435.18 2214.1,-1467.02 2190.36,-1491.84"/>
<polygon fill="#fb9a99" stroke="#fb9a99" points="2187.83,-1489.43 2183.26,-1498.99 2192.79,-1494.36 2187.83,-1489.43"/>
<text text-anchor="middle" x="2266" y="-1305.3" font-family="Symbol,fantasy" font-size="14.00" fill="#fb9a99">GREATER</text>
</g>
<!-- S24&#45;&gt;S22 -->
<g id="edge29" class="edge"><title>S24&#45;&gt;S22</title>
<path fill="none" stroke="#cab2d6" d="M3053.36,-1092.18C3135.34,-1079.43 3228,-1056.5 3228,-1018 3228,-1018 3228,-1018 3228,-452 3228,-308.216 3241.46,-227.486 3123,-146 3108.98,-136.356 3092.61,-129.291 3076.04,-124.118"/>
<polygon fill="#cab2d6" stroke="#cab2d6" points="3076.85,-120.71 3066.27,-121.285 3074.9,-127.433 3076.85,-120.71"/>
<text text-anchor="middle" x="3243.5" y="-596.3" font-family="Symbol,fantasy" font-size="14.00" fill="#cab2d6">ELSE</text>
</g>
<!-- S24&#45;&gt;S24 -->
<g id="edge26" class="edge"><title>S24&#45;&gt;S24</title>
<path fill="none" stroke="#fdbf6f" d="M3053.27,-1113.5C3064.17,-1112.13 3071,-1109.96 3071,-1107 3071,-1105.1 3068.2,-1103.53 3063.32,-1102.29"/>
<polygon fill="#fdbf6f" stroke="#fdbf6f" points="3063.73,-1098.8 3053.27,-1100.5 3062.51,-1105.7 3063.73,-1098.8"/>
<text text-anchor="middle" x="3098.5" y="-1103.3" font-family="Symbol,fantasy" font-size="14.00" fill="#fdbf6f">HYPHEN</text>
</g>
<!-- S24&#45;&gt;S25 -->
<g id="edge27" class="edge"><title>S24&#45;&gt;S25</title>
<path fill="none" stroke="#a6cee3" d="M2930,-1087.77C2930,-1075.85 2930,-1060.04 2930,-1046.48"/>
<polygon fill="#a6cee3" stroke="#a6cee3" points="2933.5,-1046.21 2930,-1036.21 2926.5,-1046.21 2933.5,-1046.21"/>
<text text-anchor="middle" x="2945.5" y="-1058.3" font-family="Symbol,fantasy" font-size="14.00" fill="#a6cee3">LESS</text>
</g>
<!-- S25&#45;&gt;L02 -->
<g id="edge34" class="edge"><title>S25&#45;&gt;L02</title>
<path fill="none" stroke="#b2df8a" d="M2791.82,-1008.84C2652.38,-999.992 2431.35,-981.542 2243,-946 2125.13,-923.758 1991,-882.828 1915.33,-858.244"/>
<polygon fill="#b2df8a" stroke="#b2df8a" points="1916.09,-854.81 1905.5,-855.035 1913.92,-861.465 1916.09,-854.81"/>
<text text-anchor="middle" x="2268" y="-923.3" font-family="Symbol,fantasy" font-size="14.00" fill="#b2df8a">LETTER</text>
</g>
<!-- S25&#45;&gt;L04 -->
<g id="edge33" class="edge"><title>S25&#45;&gt;L04</title>
<path fill="none" stroke="#1f78b4" d="M2930,-997.798C2930,-980.002 2930,-952.139 2930,-928 2930,-928 2930,-928 2930,-746 2930,-723.661 2933.67,-362.395 2921,-344 2904.8,-320.49 2879.23,-304.869 2852.7,-294.492"/>
<polygon fill="#1f78b4" stroke="#1f78b4" points="2853.89,-291.199 2843.29,-291.036 2851.47,-297.77 2853.89,-291.199"/>
<text text-anchor="middle" x="2960" y="-698.3" font-family="Symbol,fantasy" font-size="14.00" fill="#1f78b4">SOLIDUS</text>
</g>
<!-- S25&#45;&gt;S22 -->
<g id="edge32" class="edge"><title>S25&#45;&gt;S22</title>
<path fill="none" stroke="#cab2d6" d="M2958.01,-997.915C2978.6,-982.2 3003,-957.378 3003,-928 3003,-928 3003,-928 3003,-746 3003,-638.801 2984.34,-613.066 2979,-506 2976.85,-462.942 2979,-452.111 2979,-409 2979,-409 2979,-409 2979,-183 2979,-168.3 2979,-151.934 2979,-138.43"/>
<polygon fill="#cab2d6" stroke="#cab2d6" points="2982.5,-138.3 2979,-128.3 2975.5,-138.3 2982.5,-138.3"/>
<text text-anchor="middle" x="3040" y="-494.3" font-family="Symbol,fantasy" font-size="14.00" fill="#cab2d6">ELSE_RECONSUME</text>
</g>
<!-- S26 -->
<g id="node20" class="node"><title>S26</title>
<polygon fill="none" stroke="#e41a1c" points="1755,-946 1487,-946 1487,-908 1755,-908 1755,-946"/>
<text text-anchor="middle" x="1621" y="-930.8" font-family="Symbol,fantasy" font-size="14.00" fill="#e41a1c">S26 Script data escaped end tag open</text>
<text text-anchor="middle" x="1621" y="-915.8" font-family="Symbol,fantasy" font-size="14.00" fill="#e41a1c">&lt;!&#45;&#45; &lt;/</text>
</g>
<!-- S25&#45;&gt;S26 -->
<g id="edge30" class="edge"><title>S25&#45;&gt;S26</title>
<path fill="none" stroke="#1f78b4" d="M2791.76,-1012.92C2625.32,-1008.55 2337.4,-998.895 2091,-980 1981.52,-971.604 1858.14,-957.787 1765.27,-946.505"/>
<polygon fill="#1f78b4" stroke="#1f78b4" points="1765.6,-943.019 1755.25,-945.282 1764.75,-949.967 1765.6,-943.019"/>
<text text-anchor="middle" x="2120" y="-968.3" font-family="Symbol,fantasy" font-size="14.00" fill="#1f78b4">SOLIDUS</text>
</g>
<!-- S28 -->
<g id="node22" class="node"><title>S28</title>
<polygon fill="none" stroke="#e41a1c" points="2554,-946 2302,-946 2302,-908 2554,-908 2554,-946"/>
<text text-anchor="middle" x="2428" y="-930.8" font-family="Symbol,fantasy" font-size="14.00" fill="#e41a1c">S28 Script data double escape start</text>
<text text-anchor="middle" x="2428" y="-915.8" font-family="Symbol,fantasy" font-size="14.00" fill="#e41a1c">&lt;!&#45;&#45; &lt;foo</text>
</g>
<!-- S25&#45;&gt;S28 -->
<g id="edge31" class="edge"><title>S25&#45;&gt;S28</title>
<path fill="none" stroke="#b2df8a" d="M2827.2,-997.98C2744.01,-983.396 2626.98,-962.881 2541.14,-947.833"/>
<polygon fill="#b2df8a" stroke="#b2df8a" points="2541.55,-944.351 2531.09,-946.072 2540.34,-951.246 2541.55,-944.351"/>
<text text-anchor="middle" x="2749" y="-968.3" font-family="Symbol,fantasy" font-size="14.00" fill="#b2df8a">LETTER</text>
</g>
<!-- S26&#45;&gt;L02 -->
<g id="edge37" class="edge"><title>S26&#45;&gt;L02</title>
<path fill="none" stroke="#b2df8a" d="M1668.92,-907.98C1706.96,-893.672 1760.19,-873.654 1799.98,-858.691"/>
<polygon fill="#b2df8a" stroke="#b2df8a" points="1801.4,-861.895 1809.53,-855.099 1798.94,-855.343 1801.4,-861.895"/>
<text text-anchor="middle" x="1784" y="-878.3" font-family="Symbol,fantasy" font-size="14.00" fill="#b2df8a">LETTER</text>
</g>
<!-- S26&#45;&gt;S22 -->
<g id="edge36" class="edge"><title>S26&#45;&gt;S22</title>
<path fill="none" stroke="#cab2d6" d="M1612.6,-907.844C1603.03,-884.141 1591.34,-842.766 1613,-818 1632.78,-795.385 1719.48,-812.057 1747,-800 1768.68,-790.5 1775.28,-785.964 1788,-766 1869.98,-637.363 1807.85,-570.964 1875,-434 1941.13,-299.105 1950.11,-239.741 2081,-166 2149.37,-127.484 2663.65,-114.931 2881.72,-111.312"/>
<polygon fill="#cab2d6" stroke="#cab2d6" points="2881.94,-114.809 2891.88,-111.147 2881.82,-107.81 2881.94,-114.809"/>
<text text-anchor="middle" x="1936" y="-449.3" font-family="Symbol,fantasy" font-size="14.00" fill="#cab2d6">ELSE_RECONSUME</text>
</g>
<!-- S27 -->
<g id="node21" class="node"><title>S27</title>
<polygon fill="none" stroke="#e41a1c" points="1497.25,-856 1226.75,-856 1226.75,-818 1497.25,-818 1497.25,-856"/>
<text text-anchor="middle" x="1362" y="-840.8" font-family="Symbol,fantasy" font-size="14.00" fill="#e41a1c">S27 Script data escaped end tag name</text>
<text text-anchor="middle" x="1362" y="-825.8" font-family="Symbol,fantasy" font-size="14.00" fill="#e41a1c">&lt;!&#45;&#45; &lt;/foo</text>
</g>
<!-- S26&#45;&gt;S27 -->
<g id="edge35" class="edge"><title>S26&#45;&gt;S27</title>
<path fill="none" stroke="#b2df8a" d="M1567.96,-907.98C1526.55,-893.908 1468.88,-874.314 1425.09,-859.437"/>
<polygon fill="#b2df8a" stroke="#b2df8a" points="1426.01,-856.051 1415.41,-856.147 1423.75,-862.678 1426.01,-856.051"/>
<text text-anchor="middle" x="1540" y="-878.3" font-family="Symbol,fantasy" font-size="14.00" fill="#b2df8a">LETTER</text>
</g>
<!-- S27&#45;&gt;L03 -->
<g id="edge43" class="edge"><title>S27&#45;&gt;L03</title>
<path fill="none" stroke="#b2df8a" d="M1497.52,-823.791C1591.56,-815.037 1701.75,-804.094 1712,-800 1745.71,-786.527 1775,-784.306 1775,-748 1775,-748 1775,-748 1775,-272 1775,-250.839 1782.82,-228.199 1790.33,-211.32"/>
<polygon fill="#b2df8a" stroke="#b2df8a" points="1793.58,-212.642 1794.66,-202.103 1787.24,-209.666 1793.58,-212.642"/>
<text text-anchor="middle" x="1800" y="-449.3" font-family="Symbol,fantasy" font-size="14.00" fill="#b2df8a">LETTER</text>
</g>
<!-- S27&#45;&gt;L06A -->
<g id="edge40" class="edge"><title>S27&#45;&gt;L06A</title>
<path fill="none" stroke="#33a02c" d="M1283.29,-817.989C1268.47,-813.159 1253.42,-807.217 1240,-800 1230.28,-794.771 1231.32,-787.932 1221,-784 1155.04,-758.863 656.51,-769.233 586,-766 582.501,-765.84 578.978,-765.674 575.435,-765.504"/>
<polygon fill="#33a02c" stroke="#33a02c" points="575.559,-762.006 565.4,-765.014 575.218,-768.998 575.559,-762.006"/>
<text text-anchor="middle" x="1307" y="-788.3" font-family="Symbol,fantasy" font-size="14.00" fill="#33a02c">SPACE_RECONSUME</text>
</g>
<!-- S27&#45;&gt;L06B -->
<g id="edge41" class="edge"><title>S27&#45;&gt;L06B</title>
<path fill="none" stroke="#1f78b4" d="M1375.61,-817.639C1381.98,-806.662 1386.5,-793.122 1378,-784 1373.53,-779.198 1264.05,-771.124 1147.78,-763.838"/>
<polygon fill="#1f78b4" stroke="#1f78b4" points="1147.79,-760.332 1137.6,-763.203 1147.36,-767.318 1147.79,-760.332"/>
<text text-anchor="middle" x="1457.5" y="-788.3" font-family="Symbol,fantasy" font-size="14.00" fill="#1f78b4">SOLIDUS_RECONSUME</text>
</g>
<!-- S27&#45;&gt;L06C -->
<g id="edge42" class="edge"><title>S27&#45;&gt;L06C</title>
<path fill="none" stroke="#fb9a99" d="M1497.25,-822.275C1521.59,-817.047 1541.85,-809.861 1550,-800 1559.84,-788.1 1551.55,-777.829 1537.33,-769.633"/>
<polygon fill="#fb9a99" stroke="#fb9a99" points="1538.85,-766.482 1528.35,-765.051 1535.67,-772.716 1538.85,-766.482"/>
<text text-anchor="middle" x="1631.5" y="-788.3" font-family="Symbol,fantasy" font-size="14.00" fill="#fb9a99">GREATER_RECONSUME</text>
</g>
<!-- S27&#45;&gt;S22 -->
<g id="edge39" class="edge"><title>S27&#45;&gt;S22</title>
<path fill="none" stroke="#cab2d6" d="M1226.58,-818.842C1223.36,-818.546 1220.16,-818.264 1217,-818 1084.23,-806.895 141.673,-817.992 19,-766 8.28999,-761.461 0,-759.632 0,-748 0,-748 0,-748 0,-183 0,-109.201 2367.99,-108.968 2881.52,-109.786"/>
<polygon fill="#cab2d6" stroke="#cab2d6" points="2881.85,-113.286 2891.86,-109.803 2881.86,-106.286 2881.85,-113.286"/>
<text text-anchor="middle" x="61" y="-404.3" font-family="Symbol,fantasy" font-size="14.00" fill="#cab2d6">ELSE_RECONSUME</text>
</g>
<!-- S27&#45;&gt;S27 -->
<g id="edge38" class="edge"><title>S27&#45;&gt;S27</title>
<path fill="none" stroke="#b2df8a" d="M1497.28,-843.314C1508.22,-841.941 1515,-839.836 1515,-837 1515,-835.183 1512.22,-833.667 1507.34,-832.45"/>
<polygon fill="#b2df8a" stroke="#b2df8a" points="1507.74,-828.966 1497.28,-830.686 1506.53,-835.861 1507.74,-828.966"/>
<text text-anchor="middle" x="1540" y="-833.3" font-family="Symbol,fantasy" font-size="14.00" fill="#b2df8a">LETTER</text>
</g>
<!-- S28&#45;&gt;L03 -->
<g id="edge49" class="edge"><title>S28&#45;&gt;L03</title>
<path fill="none" stroke="#b2df8a" d="M2301.7,-910.735C2274.24,-905.436 2250.08,-898.603 2239,-890 2062.16,-752.718 2148.13,-620.975 2025,-434 1965.32,-343.377 1874.33,-251.764 1830.04,-209.346"/>
<polygon fill="#b2df8a" stroke="#b2df8a" points="1832.24,-206.609 1822.58,-202.249 1827.41,-211.679 1832.24,-206.609"/>
<text text-anchor="middle" x="2089" y="-494.3" font-family="Symbol,fantasy" font-size="14.00" fill="#b2df8a">LETTER</text>
</g>
<!-- S28&#45;&gt;L08A -->
<g id="edge46" class="edge"><title>S28&#45;&gt;L08A</title>
<path fill="none" stroke="#33a02c" d="M2442.97,-907.577C2451.16,-897.572 2461.54,-885.027 2471,-874 2474.17,-870.306 2477.55,-866.432 2480.88,-862.649"/>
<polygon fill="#33a02c" stroke="#33a02c" points="2483.56,-864.907 2487.57,-855.103 2478.32,-860.262 2483.56,-864.907"/>
<text text-anchor="middle" x="2492.5" y="-878.3" font-family="Symbol,fantasy" font-size="14.00" fill="#33a02c">SPACE</text>
</g>
<!-- S28&#45;&gt;L08A -->
<g id="edge47" class="edge"><title>S28&#45;&gt;L08A</title>
<path fill="none" stroke="#1f78b4" d="M2494.68,-907.977C2502.29,-903.3 2509.07,-897.411 2514,-890 2518.92,-882.601 2518.59,-873.409 2516.25,-864.821"/>
<polygon fill="#1f78b4" stroke="#1f78b4" points="2519.45,-863.39 2512.78,-855.16 2512.86,-865.754 2519.45,-863.39"/>
<text text-anchor="middle" x="2547" y="-878.3" font-family="Symbol,fantasy" font-size="14.00" fill="#1f78b4">SOLIDUS</text>
</g>
<!-- S28&#45;&gt;L08A -->
<g id="edge48" class="edge"><title>S28&#45;&gt;L08A</title>
<path fill="none" stroke="#fb9a99" d="M2403.03,-907.807C2392.32,-897.76 2383.93,-885.102 2392,-874 2395.66,-868.961 2400.05,-864.613 2404.93,-860.863"/>
<polygon fill="#fb9a99" stroke="#fb9a99" points="2407.19,-863.561 2413.57,-855.1 2403.31,-857.737 2407.19,-863.561"/>
<text text-anchor="middle" x="2423" y="-878.3" font-family="Symbol,fantasy" font-size="14.00" fill="#fb9a99">GREATER</text>
</g>
<!-- S28&#45;&gt;S22 -->
<g id="edge45" class="edge"><title>S28&#45;&gt;S22</title>
<path fill="none" stroke="#cab2d6" d="M2368.96,-907.958C2340.37,-896.774 2307.27,-879.899 2284,-856 2159.4,-728.027 2194.84,-651.242 2118,-490 2114.15,-481.926 2111.99,-480.429 2109,-472 2099.4,-444.97 2095,-437.683 2095,-409 2095,-409 2095,-409 2095,-183 2095,-143.88 2652.11,-120.866 2881.8,-113.04"/>
<polygon fill="#cab2d6" stroke="#cab2d6" points="2881.94,-116.537 2891.82,-112.701 2881.71,-109.541 2881.94,-116.537"/>
<text text-anchor="middle" x="2170" y="-449.3" font-family="Symbol,fantasy" font-size="14.00" fill="#cab2d6">ELSE_RECONSUME</text>
</g>
<!-- S28&#45;&gt;S28 -->
<g id="edge44" class="edge"><title>S28&#45;&gt;S28</title>
<path fill="none" stroke="#b2df8a" d="M2554.38,-933.437C2565.23,-932.068 2572,-929.922 2572,-927 2572,-925.128 2569.22,-923.575 2564.37,-922.34"/>
<polygon fill="#b2df8a" stroke="#b2df8a" points="2564.84,-918.868 2554.38,-920.563 2563.61,-925.76 2564.84,-918.868"/>
<text text-anchor="middle" x="2597" y="-923.3" font-family="Symbol,fantasy" font-size="14.00" fill="#b2df8a">LETTER</text>
</g>
<!-- S29&#45;&gt;S29 -->
<g id="edge52" class="edge"><title>S29&#45;&gt;S29</title>
<path fill="none" stroke="#cab2d6" d="M2651.33,-753.671C2662.14,-752.317 2669,-750.094 2669,-747 2669,-745.018 2666.19,-743.393 2661.32,-742.125"/>
<polygon fill="#cab2d6" stroke="#cab2d6" points="2661.79,-738.653 2651.33,-740.329 2660.55,-745.543 2661.79,-738.653"/>
<text text-anchor="middle" x="2684.5" y="-743.3" font-family="Symbol,fantasy" font-size="14.00" fill="#cab2d6">ELSE</text>
</g>
<!-- S30 -->
<g id="node24" class="node"><title>S30</title>
<polygon fill="none" stroke="#e41a1c" points="2724,-619 2462,-619 2462,-581 2724,-581 2724,-619"/>
<text text-anchor="middle" x="2593" y="-603.8" font-family="Symbol,fantasy" font-size="14.00" fill="#e41a1c">S30 Script data double escaped dash</text>
<text text-anchor="middle" x="2593" y="-588.8" font-family="Symbol,fantasy" font-size="14.00" fill="#e41a1c">&lt;!&#45;&#45; &lt;script&gt; &#45;</text>
</g>
<!-- S29&#45;&gt;S30 -->
<g id="edge50" class="edge"><title>S29&#45;&gt;S30</title>
<path fill="none" stroke="#fdbf6f" d="M2558.34,-727.971C2563.12,-722.609 2567.79,-716.435 2571,-710 2583.73,-684.501 2589.09,-652.165 2591.35,-629.356"/>
<polygon fill="#fdbf6f" stroke="#fdbf6f" points="2594.85,-629.562 2592.21,-619.301 2587.87,-628.967 2594.85,-629.562"/>
<text text-anchor="middle" x="2604.5" y="-698.3" font-family="Symbol,fantasy" font-size="14.00" fill="#fdbf6f">HYPHEN</text>
</g>
<!-- S32 -->
<g id="node26" class="node"><title>S32</title>
<polygon fill="none" stroke="#e41a1c" points="2912.25,-382 2585.75,-382 2585.75,-344 2912.25,-344 2912.25,-382"/>
<text text-anchor="middle" x="2749" y="-366.8" font-family="Symbol,fantasy" font-size="14.00" fill="#e41a1c">S32 Script data double escaped less&#45;than sign</text>
<text text-anchor="middle" x="2749" y="-351.8" font-family="Symbol,fantasy" font-size="14.00" fill="#e41a1c">&lt;!&#45;&#45; &lt;script&gt; &lt;</text>
</g>
<!-- S29&#45;&gt;S32 -->
<g id="edge51" class="edge"><title>S29&#45;&gt;S32</title>
<path fill="none" stroke="#a6cee3" d="M2651.5,-737.519C2698.77,-732.072 2747.15,-723.422 2766,-710 2849.74,-650.382 2850.03,-605.719 2875,-506 2882.44,-476.279 2912.05,-450.811 2873,-400 2869.5,-395.445 2865.46,-391.442 2861.02,-387.925"/>
<polygon fill="#a6cee3" stroke="#a6cee3" points="2862.84,-384.928 2852.63,-382.105 2858.85,-390.68 2862.84,-384.928"/>
<text text-anchor="middle" x="2896.5" y="-494.3" font-family="Symbol,fantasy" font-size="14.00" fill="#a6cee3">LESS</text>
</g>
<!-- S30&#45;&gt;S29 -->
<g id="edge55" class="edge"><title>S30&#45;&gt;S29</title>
<path fill="none" stroke="#cab2d6" d="M2577.64,-619.13C2563.68,-636.89 2544.07,-665.385 2536,-694 2533.87,-701.539 2533.53,-709.93 2534.01,-717.733"/>
<polygon fill="#cab2d6" stroke="#cab2d6" points="2530.55,-718.295 2535.07,-727.874 2537.51,-717.563 2530.55,-718.295"/>
<text text-anchor="middle" x="2551.5" y="-698.3" font-family="Symbol,fantasy" font-size="14.00" fill="#cab2d6">ELSE</text>
</g>
<!-- S31 -->
<g id="node25" class="node"><title>S31</title>
<polygon fill="none" stroke="#e41a1c" points="2691,-472 2393,-472 2393,-434 2691,-434 2691,-472"/>
<text text-anchor="middle" x="2542" y="-456.8" font-family="Symbol,fantasy" font-size="14.00" fill="#e41a1c">S31 Script data double escaped dash dash</text>
<text text-anchor="middle" x="2542" y="-441.8" font-family="Symbol,fantasy" font-size="14.00" fill="#e41a1c">&lt;!&#45;&#45; &lt;script&gt; &#45;&#45;</text>
</g>
<!-- S30&#45;&gt;S31 -->
<g id="edge53" class="edge"><title>S30&#45;&gt;S31</title>
<path fill="none" stroke="#fdbf6f" d="M2586.64,-580.929C2577.9,-556.074 2562.09,-511.105 2551.82,-481.909"/>
<polygon fill="#fdbf6f" stroke="#fdbf6f" points="2555.06,-480.571 2548.44,-472.299 2548.45,-482.894 2555.06,-480.571"/>
<text text-anchor="middle" x="2587.5" y="-494.3" font-family="Symbol,fantasy" font-size="14.00" fill="#fdbf6f">HYPHEN</text>
</g>
<!-- S30&#45;&gt;S32 -->
<g id="edge54" class="edge"><title>S30&#45;&gt;S32</title>
<path fill="none" stroke="#a6cee3" d="M2613.21,-580.728C2639.47,-557.609 2687.35,-517.499 2733,-490 2749.7,-479.94 2762.41,-488.371 2773,-472 2788.77,-447.617 2777.54,-414.37 2765.71,-391.231"/>
<polygon fill="#a6cee3" stroke="#a6cee3" points="2768.7,-389.407 2760.85,-382.292 2762.55,-392.75 2768.7,-389.407"/>
<text text-anchor="middle" x="2796.5" y="-449.3" font-family="Symbol,fantasy" font-size="14.00" fill="#a6cee3">LESS</text>
</g>
<!-- S31&#45;&gt;S06 -->
<g id="edge58" class="edge"><title>S31&#45;&gt;S06</title>
<path fill="none" stroke="#fb9a99" d="M2472.41,-472.085C2458.59,-476.962 2444.49,-482.903 2432,-490 2301.93,-563.894 2252.13,-590.165 2194,-728 2159.79,-809.109 2189,-837.972 2189,-926 2189,-1254 2189,-1254 2189,-1254 2189,-1342.14 2203.61,-1367.67 2178,-1452 2175.85,-1459.1 2173.05,-1466.22 2169.85,-1473.19"/>
<polygon fill="#fb9a99" stroke="#fb9a99" points="2166.51,-1472.06 2165.27,-1482.58 2172.8,-1475.13 2166.51,-1472.06"/>
<text text-anchor="middle" x="2220" y="-1013.3" font-family="Symbol,fantasy" font-size="14.00" fill="#fb9a99">GREATER</text>
</g>
<!-- S31&#45;&gt;S29 -->
<g id="edge59" class="edge"><title>S31&#45;&gt;S29</title>
<path fill="none" stroke="#cab2d6" d="M2486.09,-472.14C2461.88,-483.092 2435.93,-499.739 2422,-524 2388.35,-582.58 2388.68,-617.234 2422,-676 2434,-697.17 2455.24,-712.626 2476.35,-723.543"/>
<polygon fill="#cab2d6" stroke="#cab2d6" points="2474.84,-726.702 2485.36,-727.948 2477.92,-720.413 2474.84,-726.702"/>
<text text-anchor="middle" x="2437.5" y="-596.3" font-family="Symbol,fantasy" font-size="14.00" fill="#cab2d6">ELSE</text>
</g>
<!-- S31&#45;&gt;S31 -->
<g id="edge56" class="edge"><title>S31&#45;&gt;S31</title>
<path fill="none" stroke="#fdbf6f" d="M2691.26,-459.123C2702.26,-457.748 2709,-455.707 2709,-453 2709,-451.266 2706.23,-449.805 2701.35,-448.618"/>
<polygon fill="#fdbf6f" stroke="#fdbf6f" points="2701.71,-445.128 2691.26,-446.877 2700.52,-452.026 2701.71,-445.128"/>
<text text-anchor="middle" x="2736.5" y="-449.3" font-family="Symbol,fantasy" font-size="14.00" fill="#fdbf6f">HYPHEN</text>
</g>
<!-- S31&#45;&gt;S32 -->
<g id="edge57" class="edge"><title>S31&#45;&gt;S32</title>
<path fill="none" stroke="#a6cee3" d="M2584.39,-433.98C2616.93,-420.145 2662.03,-400.971 2696.8,-386.191"/>
<polygon fill="#a6cee3" stroke="#a6cee3" points="2698.48,-389.281 2706.31,-382.147 2695.74,-382.839 2698.48,-389.281"/>
<text text-anchor="middle" x="2680.5" y="-404.3" font-family="Symbol,fantasy" font-size="14.00" fill="#a6cee3">LESS</text>
</g>
<!-- S32&#45;&gt;L04 -->
<g id="edge62" class="edge"><title>S32&#45;&gt;L04</title>
<path fill="none" stroke="#1f78b4" d="M2749,-343.766C2749,-331.531 2749,-315.192 2749,-301.402"/>
<polygon fill="#1f78b4" stroke="#1f78b4" points="2752.5,-301.016 2749,-291.016 2745.5,-301.016 2752.5,-301.016"/>
<text text-anchor="middle" x="2778" y="-314.3" font-family="Symbol,fantasy" font-size="14.00" fill="#1f78b4">SOLIDUS</text>
</g>
<!-- S32&#45;&gt;S29 -->
<g id="edge61" class="edge"><title>S32&#45;&gt;S29</title>
<path fill="none" stroke="#cab2d6" d="M2774.33,-382.298C2801.79,-404.375 2838.83,-442.233 2816,-472 2797.24,-496.468 2768.79,-466.359 2749,-490 2722.37,-521.808 2758.28,-643.104 2733,-676 2715.09,-699.303 2688.73,-714.858 2661.17,-725.24"/>
<polygon fill="#cab2d6" stroke="#cab2d6" points="2659.65,-722.066 2651.39,-728.7 2661.98,-728.666 2659.65,-722.066"/>
<text text-anchor="middle" x="2810" y="-494.3" font-family="Symbol,fantasy" font-size="14.00" fill="#cab2d6">ELSE_RECONSUME</text>
</g>
<!-- S33 -->
<g id="node27" class="node"><title>S33</title>
<polygon fill="none" stroke="#e41a1c" points="2442,-292 2196,-292 2196,-254 2442,-254 2442,-292"/>
<text text-anchor="middle" x="2319" y="-276.8" font-family="Symbol,fantasy" font-size="14.00" fill="#e41a1c">S33 Script data double escape end</text>
<text text-anchor="middle" x="2319" y="-261.8" font-family="Symbol,fantasy" font-size="14.00" fill="#e41a1c">&lt;!&#45;&#45; &lt;script&gt; &lt;/</text>
</g>
<!-- S32&#45;&gt;S33 -->
<g id="edge60" class="edge"><title>S32&#45;&gt;S33</title>
<path fill="none" stroke="#1f78b4" d="M2660.95,-343.98C2590.19,-329.5 2490.86,-309.172 2417.48,-294.154"/>
<polygon fill="#1f78b4" stroke="#1f78b4" points="2417.8,-290.648 2407.31,-292.072 2416.4,-297.506 2417.8,-290.648"/>
<text text-anchor="middle" x="2602" y="-314.3" font-family="Symbol,fantasy" font-size="14.00" fill="#1f78b4">SOLIDUS</text>
</g>
<!-- S33&#45;&gt;L03 -->
<g id="edge68" class="edge"><title>S33&#45;&gt;L03</title>
<path fill="none" stroke="#b2df8a" d="M2212.29,-253.974C2125.34,-239.285 2002.97,-218.613 1914.91,-203.736"/>
<polygon fill="#b2df8a" stroke="#b2df8a" points="1915.32,-200.257 1904.88,-202.042 1914.16,-207.159 1915.32,-200.257"/>
<text text-anchor="middle" x="2118" y="-224.3" font-family="Symbol,fantasy" font-size="14.00" fill="#b2df8a">LETTER</text>
</g>
<!-- S33&#45;&gt;L08B -->
<g id="edge65" class="edge"><title>S33&#45;&gt;L08B</title>
<path fill="none" stroke="#33a02c" d="M2402.56,-253.712C2410.11,-249.068 2416.85,-243.26 2422,-236 2428.55,-226.777 2423.84,-217.169 2415.52,-208.812"/>
<polygon fill="#33a02c" stroke="#33a02c" points="2417.68,-206.053 2407.84,-202.123 2413.08,-211.331 2417.68,-206.053"/>
<text text-anchor="middle" x="2447.5" y="-224.3" font-family="Symbol,fantasy" font-size="14.00" fill="#33a02c">SPACE</text>
</g>
<!-- S33&#45;&gt;L08B -->
<g id="edge66" class="edge"><title>S33&#45;&gt;L08B</title>
<path fill="none" stroke="#1f78b4" d="M2291.54,-253.969C2279.96,-244.079 2270.83,-231.519 2279,-220 2282.26,-215.406 2286.17,-211.41 2290.53,-207.935"/>
<polygon fill="#1f78b4" stroke="#1f78b4" points="2292.57,-210.781 2298.82,-202.226 2288.6,-205.016 2292.57,-210.781"/>
<text text-anchor="middle" x="2308" y="-224.3" font-family="Symbol,fantasy" font-size="14.00" fill="#1f78b4">SOLIDUS</text>
</g>
<!-- S33&#45;&gt;L08B -->
<g id="edge67" class="edge"><title>S33&#45;&gt;L08B</title>
<path fill="none" stroke="#fb9a99" d="M2331.43,-253.974C2340.13,-241.361 2351.87,-224.338 2361.51,-210.359"/>
<polygon fill="#fb9a99" stroke="#fb9a99" points="2364.4,-212.335 2367.2,-202.115 2358.64,-208.36 2364.4,-212.335"/>
<text text-anchor="middle" x="2386" y="-224.3" font-family="Symbol,fantasy" font-size="14.00" fill="#fb9a99">GREATER</text>
</g>
<!-- S33&#45;&gt;S29 -->
<g id="edge64" class="edge"><title>S33&#45;&gt;S29</title>
<path fill="none" stroke="#cab2d6" d="M2294.42,-292.034C2275.66,-308.065 2253,-333.354 2253,-362 2253,-601 2253,-601 2253,-601 2253,-679.077 2338.84,-715.126 2416.47,-731.762"/>
<polygon fill="#cab2d6" stroke="#cab2d6" points="2415.88,-735.214 2426.38,-733.792 2417.28,-728.356 2415.88,-735.214"/>
<text text-anchor="middle" x="2314" y="-449.3" font-family="Symbol,fantasy" font-size="14.00" fill="#cab2d6">ELSE_RECONSUME</text>
</g>
<!-- S33&#45;&gt;S33 -->
<g id="edge63" class="edge"><title>S33&#45;&gt;S33</title>
<path fill="none" stroke="#b2df8a" d="M2442.27,-279.497C2453.17,-278.131 2460,-275.965 2460,-273 2460,-271.101 2457.2,-269.529 2452.32,-268.286"/>
<polygon fill="#b2df8a" stroke="#b2df8a" points="2452.73,-264.805 2442.27,-266.503 2451.51,-271.697 2452.73,-264.805"/>
<text text-anchor="middle" x="2485" y="-269.3" font-family="Symbol,fantasy" font-size="14.00" fill="#b2df8a">LETTER</text>
</g>
</g>
</svg>
