<?xml version="1.0" encoding="UTF-8" standalone="no"?>
<!DOCTYPE svg PUBLIC "-//W3C//DTD SVG 1.1//EN"
 "http://www.w3.org/Graphics/SVG/1.1/DTD/svg11.dtd">
<!-- Generated by graphviz version 2.36.0 (20140111.2315)
 -->
<!-- Title: start Pages: 1 -->
<svg width="321pt" height="386pt"
 viewBox="0.00 0.00 321.00 386.00" xmlns="http://www.w3.org/2000/svg" xmlns:xlink="http://www.w3.org/1999/xlink">
<g id="graph0" class="graph" transform="scale(1 1) rotate(0) translate(4 382)">
<title>start</title>
<polygon fill="white" stroke="none" points="-4,4 -4,-382 317,-382 317,4 -4,4"/>
<!-- S01 -->
<g id="node1" class="node"><title>S01</title>
<ellipse fill="none" stroke="#4daf4a" cx="76" cy="-302" rx="72" ry="72"/>
<ellipse fill="none" stroke="#4daf4a" cx="76" cy="-302" rx="76" ry="76"/>
<text text-anchor="middle" x="76" y="-298.3" font-family="Symbol,fantasy" font-size="14.00" fill="#4daf4a">S01 Data</text>
</g>
<!-- S01&#45;&gt;S01 -->
<g id="edge2" class="edge"><title>S01&#45;&gt;S01</title>
<path fill="none" stroke="#cab2d6" d="M145.689,-332.659C159.855,-329.319 170,-319.1 170,-302 170,-289.042 164.174,-280.034 155.187,-274.978"/>
<polygon fill="#cab2d6" stroke="#cab2d6" points="156.279,-271.649 145.689,-271.341 153.776,-278.186 156.279,-271.649"/>
<text text-anchor="middle" x="185.5" y="-298.3" font-family="Symbol,fantasy" font-size="14.00" fill="#cab2d6">ELSE</text>
</g>
<!-- S08 -->
<g id="node3" class="node"><title>S08</title>
<polygon fill="none" stroke="#a65628" points="128.25,-38 23.75,-38 23.75,-0 128.25,-0 128.25,-38"/>
<text text-anchor="middle" x="76" y="-22.8" font-family="Symbol,fantasy" font-size="14.00" fill="#a65628">S08 Tag open</text>
<text text-anchor="middle" x="76" y="-7.8" font-family="Symbol,fantasy" font-size="14.00" fill="#a65628">&lt;</text>
</g>
<!-- S01&#45;&gt;S08 -->
<g id="edge1" class="edge"><title>S01&#45;&gt;S08</title>
<path fill="none" stroke="#a6cee3" d="M71.9927,-225.886C70.0914,-177.376 68.8476,-112.917 72,-56 72.135,-53.563 72.321,-51.0375 72.5394,-48.5063"/>
<polygon fill="#a6cee3" stroke="#a6cee3" points="76.0494,-48.5826 73.5724,-38.2815 69.0849,-47.879 76.0494,-48.5826"/>
<text text-anchor="middle" x="87.5" y="-128.3" font-family="Symbol,fantasy" font-size="14.00" fill="#a6cee3">LESS</text>
</g>
<!-- S07 -->
<g id="node2" class="node"><title>S07</title>
<ellipse fill="none" stroke="#377eb8" cx="188" cy="-132" rx="72" ry="72"/>
<ellipse fill="none" stroke="#377eb8" cx="188" cy="-132" rx="76" ry="76"/>
<text text-anchor="middle" x="188" y="-128.3" font-family="Symbol,fantasy" font-size="14.00" fill="#377eb8">S07 PLAINTEXT</text>
</g>
<!-- S07&#45;&gt;S07 -->
<g id="edge3" class="edge"><title>S07&#45;&gt;S07</title>
<path fill="none" stroke="#cab2d6" d="M261.696,-151.43C273.73,-148.648 282,-142.172 282,-132 282,-124.848 277.911,-119.523 271.3,-116.024"/>
<polygon fill="#cab2d6" stroke="#cab2d6" points="272.29,-112.661 261.696,-112.57 269.921,-119.248 272.29,-112.661"/>
<text text-anchor="middle" x="297.5" y="-128.3" font-family="Symbol,fantasy" font-size="14.00" fill="#cab2d6">ELSE</text>
</g>
</g>
</svg>
