<?xml version="1.0" encoding="UTF-8" standalone="no"?>
<!DOCTYPE svg PUBLIC "-//W3C//DTD SVG 1.1//EN"
 "http://www.w3.org/Graphics/SVG/1.1/DTD/svg11.dtd">
<!-- Generated by graphviz version 2.36.0 (20140111.2315)
 -->
<!-- Title: tag Pages: 1 -->
<svg width="2070pt" height="604pt"
 viewBox="0.00 0.00 2070.00 604.00" xmlns="http://www.w3.org/2000/svg" xmlns:xlink="http://www.w3.org/1999/xlink">
<g id="graph0" class="graph" transform="scale(1 1) rotate(0) translate(4 600)">
<title>tag</title>
<polygon fill="white" stroke="none" points="-4,4 -4,-600 2066,-600 2066,4 -4,4"/>
<!-- S08 -->
<g id="node1" class="node"><title>S08</title>
<polygon fill="none" stroke="#a65628" points="1251,-592 1035,-592 1035,-554 1251,-554 1251,-592"/>
<polygon fill="none" stroke="#a65628" points="1255,-596 1031,-596 1031,-550 1255,-550 1255,-596"/>
<text text-anchor="middle" x="1143" y="-576.8" font-family="Symbol,fantasy" font-size="14.00" fill="#a65628">S08 Tag open</text>
<text text-anchor="middle" x="1143" y="-561.8" font-family="Symbol,fantasy" font-size="14.00" fill="#a65628">&lt;</text>
</g>
<!-- L01 -->
<g id="node2" class="node"><title>L01</title>
<polygon fill="none" stroke="#999999" points="478.282,-497 97.6381,-497 -0.281679,-461 380.362,-461 478.282,-497"/>
<text text-anchor="middle" x="239" y="-475.3" font-family="Symbol,fantasy" font-size="14.00" fill="#999999">Create a new start tag and append</text>
</g>
<!-- S08&#45;&gt;L01 -->
<g id="edge6" class="edge"><title>S08&#45;&gt;L01</title>
<path fill="none" stroke="#b2df8a" d="M1030.91,-572.269C891.917,-571.075 648.135,-563.973 442,-532 394.938,-524.7 342.926,-511.269 303.332,-499.886"/>
<polygon fill="#b2df8a" stroke="#b2df8a" points="304.123,-496.471 293.544,-497.041 302.169,-503.193 304.123,-496.471"/>
<text text-anchor="middle" x="467" y="-520.3" font-family="Symbol,fantasy" font-size="14.00" fill="#b2df8a">LETTER</text>
</g>
<!-- S01 -->
<g id="node6" class="node"><title>S01</title>
<ellipse fill="none" stroke="#4daf4a" cx="1112" cy="-76" rx="72" ry="72"/>
<ellipse fill="none" stroke="#4daf4a" cx="1112" cy="-76" rx="76" ry="76"/>
<text text-anchor="middle" x="1112" y="-72.3" font-family="Symbol,fantasy" font-size="14.00" fill="#4daf4a">S01 Data</text>
</g>
<!-- S08&#45;&gt;S01 -->
<g id="edge5" class="edge"><title>S08&#45;&gt;S01</title>
<path fill="none" stroke="#cab2d6" d="M1030.95,-567.034C848.169,-557.416 506,-532.412 506,-480 506,-480 506,-480 506,-208 506,-102.912 858.553,-81.9214 1025.85,-77.8767"/>
<polygon fill="#cab2d6" stroke="#cab2d6" points="1025.95,-81.3754 1035.86,-77.6494 1025.79,-74.3772 1025.95,-81.3754"/>
<text text-anchor="middle" x="567" y="-340.3" font-family="Symbol,fantasy" font-size="14.00" fill="#cab2d6">ELSE_RECONSUME</text>
</g>
<!-- S09 -->
<g id="node11" class="node"><title>S09</title>
<polygon fill="none" stroke="#a65628" points="1126.25,-498 995.75,-498 995.75,-460 1126.25,-460 1126.25,-498"/>
<text text-anchor="middle" x="1061" y="-482.8" font-family="Symbol,fantasy" font-size="14.00" fill="#a65628">S09 End tag open</text>
<text text-anchor="middle" x="1061" y="-467.8" font-family="Symbol,fantasy" font-size="14.00" fill="#a65628">&lt;/</text>
</g>
<!-- S08&#45;&gt;S09 -->
<g id="edge2" class="edge"><title>S08&#45;&gt;S09</title>
<path fill="none" stroke="#1f78b4" d="M1123.15,-549.729C1111.34,-536.482 1096.31,-519.619 1083.99,-505.794"/>
<polygon fill="#1f78b4" stroke="#1f78b4" points="1086.36,-503.193 1077.09,-498.056 1081.13,-507.85 1086.36,-503.193"/>
<text text-anchor="middle" x="1136" y="-520.3" font-family="Symbol,fantasy" font-size="14.00" fill="#1f78b4">SOLIDUS</text>
</g>
<!-- S10 -->
<g id="node12" class="node"><title>S10</title>
<polygon fill="none" stroke="#a65628" points="1380.25,-408 1271.75,-408 1271.75,-370 1380.25,-370 1380.25,-408"/>
<text text-anchor="middle" x="1326" y="-392.8" font-family="Symbol,fantasy" font-size="14.00" fill="#a65628">S10 Tag name</text>
<text text-anchor="middle" x="1326" y="-377.8" font-family="Symbol,fantasy" font-size="14.00" fill="#a65628">&lt;/foo</text>
</g>
<!-- S08&#45;&gt;S10 -->
<g id="edge3" class="edge"><title>S08&#45;&gt;S10</title>
<path fill="none" stroke="#b2df8a" d="M1211.09,-549.92C1238.15,-538.2 1267.63,-521.295 1288,-498 1307.75,-475.424 1317.42,-441.941 1322.03,-418.252"/>
<polygon fill="#b2df8a" stroke="#b2df8a" points="1325.52,-418.586 1323.81,-408.131 1318.63,-417.373 1325.52,-418.586"/>
<text text-anchor="middle" x="1335" y="-475.3" font-family="Symbol,fantasy" font-size="14.00" fill="#b2df8a">LETTER</text>
</g>
<!-- S44 -->
<g id="node15" class="node"><title>S44</title>
<polygon fill="none" stroke="#ff7f00" points="1230.25,-408 1079.75,-408 1079.75,-370 1230.25,-370 1230.25,-408"/>
<text text-anchor="middle" x="1155" y="-392.8" font-family="Symbol,fantasy" font-size="14.00" fill="#ff7f00">S44 Bogus comment</text>
<text text-anchor="middle" x="1155" y="-377.8" font-family="Symbol,fantasy" font-size="14.00" fill="#ff7f00">&lt;? or &lt;/? or &lt;!??</text>
</g>
<!-- S08&#45;&gt;S44 -->
<g id="edge4" class="edge"><title>S08&#45;&gt;S44</title>
<path fill="none" stroke="#fdbf6f" d="M1158.56,-549.633C1161.62,-544.108 1164.39,-538.037 1166,-532 1178.15,-486.483 1172.96,-472.594 1166,-426 1165.6,-423.306 1165.03,-420.534 1164.37,-417.782"/>
<polygon fill="#fdbf6f" stroke="#fdbf6f" points="1167.72,-416.764 1161.67,-408.072 1160.98,-418.645 1167.72,-416.764"/>
<text text-anchor="middle" x="1229" y="-475.3" font-family="Symbol,fantasy" font-size="14.00" fill="#fdbf6f">QUESTIONMARK</text>
</g>
<!-- S45 -->
<g id="node16" class="node"><title>S45</title>
<polygon fill="none" stroke="#ff7f00" points="1605.25,-498 1394.75,-498 1394.75,-460 1605.25,-460 1605.25,-498"/>
<text text-anchor="middle" x="1500" y="-482.8" font-family="Symbol,fantasy" font-size="14.00" fill="#ff7f00">S45 Markup declaration open</text>
<text text-anchor="middle" x="1500" y="-467.8" font-family="Symbol,fantasy" font-size="14.00" fill="#ff7f00">&lt;!</text>
</g>
<!-- S08&#45;&gt;S45 -->
<g id="edge1" class="edge"><title>S08&#45;&gt;S45</title>
<path fill="none" stroke="#fdbf6f" d="M1255.25,-551.51C1283.09,-545.797 1312.75,-539.171 1340,-532 1373.24,-523.253 1409.74,-511.558 1439.47,-501.474"/>
<polygon fill="#fdbf6f" stroke="#fdbf6f" points="1440.95,-504.668 1449.28,-498.123 1438.68,-498.044 1440.95,-504.668"/>
<text text-anchor="middle" x="1443.5" y="-520.3" font-family="Symbol,fantasy" font-size="14.00" fill="#fdbf6f">EXCLAMATION</text>
</g>
<!-- L02 -->
<g id="node3" class="node"><title>L02</title>
<polygon fill="none" stroke="#999999" points="1000.21,-407 629.228,-407 533.795,-371 904.772,-371 1000.21,-407"/>
<text text-anchor="middle" x="767" y="-385.3" font-family="Symbol,fantasy" font-size="14.00" fill="#999999">Create a new end tag and append</text>
</g>
<!-- L03 -->
<g id="node4" class="node"><title>L03</title>
<polygon fill="none" stroke="#999999" points="1770.21,-317 1516.94,-317 1451.79,-281 1705.06,-281 1770.21,-317"/>
<text text-anchor="middle" x="1611" y="-295.3" font-family="Symbol,fantasy" font-size="14.00" fill="#999999">Append to current tag</text>
</g>
<!-- L11 -->
<g id="node5" class="node"><title>L11</title>
<polygon fill="none" stroke="#999999" points="1888.12,-227 1536.37,-227 1445.88,-191 1797.63,-191 1888.12,-227"/>
<text text-anchor="middle" x="1667" y="-205.3" font-family="Symbol,fantasy" font-size="14.00" fill="#999999">Switch state based on tag name</text>
</g>
<!-- L11&#45;&gt;S01 -->
<g id="edge20" class="edge"><title>L11&#45;&gt;S01</title>
<path fill="none" stroke="#fdbf6f" d="M1575.63,-190.947C1521.72,-180.517 1452.27,-166.437 1391,-152 1324.57,-136.347 1249.93,-116.143 1194.58,-100.65"/>
<polygon fill="#fdbf6f" stroke="#fdbf6f" points="1195.39,-97.2442 1184.82,-97.9118 1193.5,-103.984 1195.39,-97.2442"/>
</g>
<!-- S03 -->
<g id="node7" class="node"><title>S03</title>
<ellipse fill="none" stroke="#377eb8" cx="1646" cy="-76" rx="72" ry="72"/>
<ellipse fill="none" stroke="#377eb8" cx="1646" cy="-76" rx="76" ry="76"/>
<text text-anchor="middle" x="1646" y="-72.3" font-family="Symbol,fantasy" font-size="14.00" fill="#377eb8">S03 RCDATA</text>
</g>
<!-- L11&#45;&gt;S03 -->
<g id="edge21" class="edge"><title>L11&#45;&gt;S03</title>
<path fill="none" stroke="#fdbf6f" d="M1664.25,-190.874C1662.95,-182.721 1661.28,-172.308 1659.48,-161.103"/>
<polygon fill="#fdbf6f" stroke="#fdbf6f" points="1662.92,-160.409 1657.88,-151.089 1656,-161.517 1662.92,-160.409"/>
</g>
<!-- S05 -->
<g id="node8" class="node"><title>S05</title>
<ellipse fill="none" stroke="#377eb8" cx="1816" cy="-76" rx="72" ry="72"/>
<ellipse fill="none" stroke="#377eb8" cx="1816" cy="-76" rx="76" ry="76"/>
<text text-anchor="middle" x="1816" y="-72.3" font-family="Symbol,fantasy" font-size="14.00" fill="#377eb8">S05 RAWTEXT</text>
</g>
<!-- L11&#45;&gt;S05 -->
<g id="edge22" class="edge"><title>L11&#45;&gt;S05</title>
<path fill="none" stroke="#fdbf6f" d="M1686.63,-190.865C1699.3,-179.79 1716.14,-165.059 1731,-152 1737.73,-146.085 1744.76,-139.902 1751.76,-133.733"/>
<polygon fill="#fdbf6f" stroke="#fdbf6f" points="1754.15,-136.296 1759.33,-127.058 1749.52,-131.044 1754.15,-136.296"/>
</g>
<!-- S06 -->
<g id="node9" class="node"><title>S06</title>
<ellipse fill="none" stroke="#e41a1c" cx="1986" cy="-76" rx="72" ry="72"/>
<ellipse fill="none" stroke="#e41a1c" cx="1986" cy="-76" rx="76" ry="76"/>
<text text-anchor="middle" x="1986" y="-72.3" font-family="Symbol,fantasy" font-size="14.00" fill="#e41a1c">S06 Script data</text>
</g>
<!-- L11&#45;&gt;S06 -->
<g id="edge23" class="edge"><title>L11&#45;&gt;S06</title>
<path fill="none" stroke="#fdbf6f" d="M1787.06,-190.978C1824.91,-182.583 1865.97,-170.191 1901,-152 1909.08,-147.804 1917.02,-142.675 1924.6,-137.087"/>
<polygon fill="#fdbf6f" stroke="#fdbf6f" points="1926.89,-139.742 1932.67,-130.867 1922.61,-134.197 1926.89,-139.742"/>
</g>
<!-- S07 -->
<g id="node10" class="node"><title>S07</title>
<ellipse fill="none" stroke="#377eb8" cx="1476" cy="-76" rx="72" ry="72"/>
<ellipse fill="none" stroke="#377eb8" cx="1476" cy="-76" rx="76" ry="76"/>
<text text-anchor="middle" x="1476" y="-72.3" font-family="Symbol,fantasy" font-size="14.00" fill="#377eb8">S07 PLAINTEXT</text>
</g>
<!-- L11&#45;&gt;S07 -->
<g id="edge24" class="edge"><title>L11&#45;&gt;S07</title>
<path fill="none" stroke="#fdbf6f" d="M1629.45,-190.874C1608.59,-180.704 1582.58,-166.905 1561,-152 1553.63,-146.907 1546.19,-141.253 1538.94,-135.399"/>
<polygon fill="#fdbf6f" stroke="#fdbf6f" points="1541.1,-132.647 1531.16,-128.986 1536.65,-138.048 1541.1,-132.647"/>
</g>
<!-- S09&#45;&gt;L02 -->
<g id="edge10" class="edge"><title>S09&#45;&gt;L02</title>
<path fill="none" stroke="#b2df8a" d="M1000.8,-459.98C952.287,-445.46 884.132,-425.06 833.92,-410.03"/>
<polygon fill="#b2df8a" stroke="#b2df8a" points="834.711,-406.614 824.127,-407.099 832.704,-413.32 834.711,-406.614"/>
<text text-anchor="middle" x="966" y="-430.3" font-family="Symbol,fantasy" font-size="14.00" fill="#b2df8a">LETTER</text>
</g>
<!-- S09&#45;&gt;S01 -->
<g id="edge8" class="edge"><title>S09&#45;&gt;S01</title>
<path fill="none" stroke="#fb9a99" d="M1049.83,-459.859C1040.25,-442.564 1028,-415.454 1028,-390 1028,-390 1028,-390 1028,-208 1028,-183.067 1038.92,-159.087 1052.88,-138.612"/>
<polygon fill="#fb9a99" stroke="#fb9a99" points="1055.82,-140.521 1058.8,-130.355 1050.13,-136.44 1055.82,-140.521"/>
<text text-anchor="middle" x="1059" y="-295.3" font-family="Symbol,fantasy" font-size="14.00" fill="#fb9a99">GREATER</text>
</g>
<!-- S09&#45;&gt;S10 -->
<g id="edge7" class="edge"><title>S09&#45;&gt;S10</title>
<path fill="none" stroke="#b2df8a" d="M1115.27,-459.98C1157.73,-445.879 1216.89,-426.232 1261.73,-411.344"/>
<polygon fill="#b2df8a" stroke="#b2df8a" points="1262.96,-414.621 1271.35,-408.147 1260.76,-407.977 1262.96,-414.621"/>
<text text-anchor="middle" x="1243" y="-430.3" font-family="Symbol,fantasy" font-size="14.00" fill="#b2df8a">LETTER</text>
</g>
<!-- S09&#45;&gt;S44 -->
<g id="edge9" class="edge"><title>S09&#45;&gt;S44</title>
<path fill="none" stroke="#cab2d6" d="M1056.6,-459.6C1055.12,-448.878 1055.27,-435.619 1062,-426 1065.23,-421.389 1069.13,-417.369 1073.49,-413.863"/>
<polygon fill="#cab2d6" stroke="#cab2d6" points="1075.57,-416.678 1081.78,-408.093 1071.58,-410.932 1075.57,-416.678"/>
<text text-anchor="middle" x="1077.5" y="-430.3" font-family="Symbol,fantasy" font-size="14.00" fill="#cab2d6">ELSE</text>
</g>
<!-- S10&#45;&gt;L03 -->
<g id="edge16" class="edge"><title>S10&#45;&gt;L03</title>
<path fill="none" stroke="#cab2d6" d="M1380.28,-371.241C1427.37,-356.701 1495.64,-335.619 1545.71,-320.16"/>
<polygon fill="#cab2d6" stroke="#cab2d6" points="1546.94,-323.442 1555.47,-317.147 1544.88,-316.753 1546.94,-323.442"/>
<text text-anchor="middle" x="1510.5" y="-340.3" font-family="Symbol,fantasy" font-size="14.00" fill="#cab2d6">ELSE</text>
</g>
<!-- S10&#45;&gt;L11 -->
<g id="edge15" class="edge"><title>S10&#45;&gt;L11</title>
<path fill="none" stroke="#fb9a99" d="M1380.62,-388.024C1489.67,-386.786 1728.24,-377.207 1779,-318 1806.6,-285.808 1758.24,-252.486 1716.69,-231.525"/>
<polygon fill="#fb9a99" stroke="#fb9a99" points="1718.21,-228.371 1707.69,-227.116 1715.13,-234.658 1718.21,-228.371"/>
<text text-anchor="middle" x="1818" y="-295.3" font-family="Symbol,fantasy" font-size="14.00" fill="#fb9a99">GREATER</text>
</g>
<!-- S10&#45;&gt;S01 -->
<g id="edge13" class="edge"><title>S10&#45;&gt;S01</title>
<path fill="none" stroke="#fb9a99" d="M1271.59,-378.184C1250.82,-372.721 1227.66,-364.424 1209,-352 1165.66,-323.149 1154.59,-309.824 1134,-262 1120.67,-231.038 1114.55,-194.624 1111.97,-162.329"/>
<polygon fill="#fb9a99" stroke="#fb9a99" points="1115.44,-161.735 1111.26,-152 1108.46,-162.219 1115.44,-161.735"/>
<text text-anchor="middle" x="1165" y="-250.3" font-family="Symbol,fantasy" font-size="14.00" fill="#fb9a99">GREATER</text>
</g>
<!-- S10&#45;&gt;S10 -->
<g id="edge14" class="edge"><title>S10&#45;&gt;S10</title>
<path fill="none" stroke="#cab2d6" d="M1380.32,-396.855C1390.68,-395.915 1398,-393.297 1398,-389 1398,-386.314 1395.14,-384.285 1390.46,-382.91"/>
<polygon fill="#cab2d6" stroke="#cab2d6" points="1390.77,-379.411 1380.32,-381.145 1389.57,-386.307 1390.77,-379.411"/>
<text text-anchor="middle" x="1413.5" y="-385.3" font-family="Symbol,fantasy" font-size="14.00" fill="#cab2d6">ELSE</text>
</g>
<!-- S34 -->
<g id="node13" class="node"><title>S34</title>
<polygon fill="none" stroke="#984ea3" points="1329.25,-228 1140.75,-228 1140.75,-190 1329.25,-190 1329.25,-228"/>
<text text-anchor="middle" x="1235" y="-212.8" font-family="Symbol,fantasy" font-size="14.00" fill="#984ea3">S34 Before attribute name</text>
<text text-anchor="middle" x="1235" y="-197.8" font-family="Symbol,fantasy" font-size="14.00" fill="#984ea3">&lt;foo_</text>
</g>
<!-- S10&#45;&gt;S34 -->
<g id="edge11" class="edge"><title>S10&#45;&gt;S34</title>
<path fill="none" stroke="#33a02c" d="M1271.45,-372.779C1244.3,-362.144 1213.95,-344.907 1198,-318 1182.67,-292.149 1198.48,-259.033 1213.92,-236.327"/>
<polygon fill="#33a02c" stroke="#33a02c" points="1216.78,-238.341 1219.75,-228.171 1211.09,-234.268 1216.78,-238.341"/>
<text text-anchor="middle" x="1219.5" y="-295.3" font-family="Symbol,fantasy" font-size="14.00" fill="#33a02c">SPACE</text>
</g>
<!-- S43 -->
<g id="node14" class="node"><title>S43</title>
<polygon fill="none" stroke="#a65628" points="1434,-318 1250,-318 1250,-280 1434,-280 1434,-318"/>
<text text-anchor="middle" x="1342" y="-302.8" font-family="Symbol,fantasy" font-size="14.00" fill="#a65628">S43 Self&#45;closing start tag</text>
<text text-anchor="middle" x="1342" y="-287.8" font-family="Symbol,fantasy" font-size="14.00" fill="#a65628">&lt;foo/</text>
</g>
<!-- S10&#45;&gt;S43 -->
<g id="edge12" class="edge"><title>S10&#45;&gt;S43</title>
<path fill="none" stroke="#1f78b4" d="M1329.32,-369.766C1331.5,-357.731 1334.41,-341.725 1336.89,-328.08"/>
<polygon fill="#1f78b4" stroke="#1f78b4" points="1340.34,-328.675 1338.69,-318.21 1333.46,-327.423 1340.34,-328.675"/>
<text text-anchor="middle" x="1365" y="-340.3" font-family="Symbol,fantasy" font-size="14.00" fill="#1f78b4">SOLIDUS</text>
</g>
<!-- S43&#45;&gt;L11 -->
<g id="edge19" class="edge"><title>S43&#45;&gt;L11</title>
<path fill="none" stroke="#fb9a99" d="M1408.55,-279.98C1462.6,-265.345 1538.71,-244.738 1594.33,-229.676"/>
<polygon fill="#fb9a99" stroke="#fb9a99" points="1595.38,-233.017 1604.12,-227.025 1593.56,-226.261 1595.38,-233.017"/>
<text text-anchor="middle" x="1564" y="-250.3" font-family="Symbol,fantasy" font-size="14.00" fill="#fb9a99">GREATER</text>
</g>
<!-- S43&#45;&gt;S01 -->
<g id="edge17" class="edge"><title>S43&#45;&gt;S01</title>
<path fill="none" stroke="#fb9a99" d="M1348.06,-279.887C1349.68,-274.225 1351.19,-267.913 1352,-262 1356.4,-229.699 1358.4,-215.429 1338,-190 1301.97,-145.088 1243.48,-116.526 1195.03,-99.3537"/>
<polygon fill="#fb9a99" stroke="#fb9a99" points="1196.08,-96.013 1185.49,-96.0697 1193.8,-102.632 1196.08,-96.013"/>
<text text-anchor="middle" x="1386" y="-205.3" font-family="Symbol,fantasy" font-size="14.00" fill="#fb9a99">GREATER</text>
</g>
<!-- S43&#45;&gt;S34 -->
<g id="edge18" class="edge"><title>S43&#45;&gt;S34</title>
<path fill="none" stroke="#cab2d6" d="M1249.94,-279.924C1242.23,-275.223 1235.35,-269.345 1230,-262 1225.06,-255.227 1224.34,-246.566 1225.44,-238.264"/>
<polygon fill="#cab2d6" stroke="#cab2d6" points="1228.86,-238.975 1227.51,-228.467 1222.02,-237.525 1228.86,-238.975"/>
<text text-anchor="middle" x="1291" y="-250.3" font-family="Symbol,fantasy" font-size="14.00" fill="#cab2d6">ELSE_RECONSUME</text>
</g>
</g>
</svg>
